<?xml version="1.0" standalone="no"?>
<!DOCTYPE svg PUBLIC "-//W3C//DTD SVG 20010904//EN"
 "http://www.w3.org/TR/2001/REC-SVG-20010904/DTD/svg10.dtd">
<svg version="1.0" xmlns="http://www.w3.org/2000/svg"
 width="512.000000pt" height="512.000000pt" viewBox="0 0 512.000000 512.000000"
 preserveAspectRatio="xMidYMid meet">
<metadata>
Created by potrace 1.14, written by Peter Selinger 2001-2017
</metadata>
<g transform="translate(0.000000,512.000000) scale(0.100000,-0.100000)"
fill="#000000" stroke="none">
<path d="M2115 4500 c15 -24 14 -40 -1 -40 -9 0 -12 -5 -9 -11 4 -6 14 -8 24
-4 12 5 13 4 4 -6 -10 -10 -16 -9 -28 1 -11 9 -13 16 -5 24 21 21 9 25 -15 4
-24 -20 -24 -23 -8 -30 14 -5 15 -7 3 -7 -9 -1 -22 5 -29 12 -12 10 -13 8 -7
-8 6 -19 6 -19 -9 -1 -12 15 -17 17 -29 7 -17 -14 -40 -5 -30 11 4 6 9 7 13 0
3 -5 20 4 36 21 17 17 23 25 14 19 -9 -7 -20 -8 -24 -4 -5 4 -5 1 -1 -5 4 -7
2 -14 -3 -14 -12 -2 -26 -5 -38 -9 -5 -1 -11 -2 -15 -1 -3 0 1 -13 9 -30 8
-17 12 -33 9 -36 -3 -4 -6 -1 -6 5 0 7 -5 12 -11 12 -5 0 -8 -4 -4 -9 3 -5 1
-12 -4 -15 -11 -7 -9 13 3 32 4 7 -8 4 -27 -7 -42 -23 -67 -28 -86 -17 -10 6
-12 5 -7 -3 4 -6 0 -14 -8 -17 -9 -3 -13 -10 -10 -15 3 -5 -2 -9 -10 -9 -20 0
-48 -29 -40 -42 4 -6 -1 -8 -15 -3 -13 4 -21 2 -21 -5 0 -7 -8 -10 -18 -8 -12
4 -18 -1 -19 -13 -1 -11 2 -19 7 -19 5 0 7 -7 4 -15 -4 -8 -10 -15 -16 -15 -5
0 -7 4 -4 8 2 4 1 13 -3 20 -4 7 -7 -5 -7 -27 0 -22 3 -38 6 -36 4 2 7 -2 7
-10 0 -11 -5 -10 -24 2 -12 8 -23 12 -23 8 0 -4 -6 -2 -14 4 -19 16 -41 -10
-24 -27 6 -6 8 -15 4 -19 -4 -4 -11 -1 -15 6 -5 7 -14 10 -20 7 -6 -4 -9 -12
-5 -17 3 -5 9 -7 14 -4 5 3 15 -1 23 -9 8 -8 18 -12 22 -8 5 4 5 1 1 -6 -5 -8
-12 -10 -19 -4 -20 16 -76 20 -70 6 2 -7 15 -10 28 -8 13 2 26 0 30 -6 3 -5 0
-7 -8 -5 -7 3 -22 -3 -32 -15 -10 -11 -25 -20 -34 -20 -9 0 -24 -7 -34 -15
-11 -7 -28 -12 -39 -10 -17 4 -18 2 -6 -12 11 -15 11 -16 -5 -10 -10 4 -16 3
-12 -2 7 -12 -35 -42 -48 -34 -6 3 -7 1 -3 -5 3 -5 1 -12 -6 -14 -9 -3 -9 -6
0 -12 7 -4 12 -3 12 3 0 6 10 16 23 22 12 6 19 8 15 4 -4 -5 -3 -14 3 -22 8
-8 8 -13 1 -13 -6 0 -12 6 -15 13 -2 6 -8 9 -12 5 -4 -4 -2 -14 4 -22 10 -12
9 -14 -3 -12 -9 1 -18 5 -22 8 -3 4 -12 4 -20 1 -10 -4 -12 0 -7 13 6 16 5 17
-9 4 -16 -15 -13 -44 3 -34 5 3 9 0 9 -5 0 -14 -11 -13 -32 3 -10 7 -14 17
-10 21 4 5 1 5 -6 1 -7 -4 -12 -13 -11 -19 1 -7 1 -19 0 -27 -1 -12 -4 -12
-12 2 -7 12 -6 25 1 40 11 22 11 22 -5 3 -10 -12 -14 -31 -10 -55 2 -19 2 -27
-1 -17 -3 9 -10 17 -16 17 -5 0 -8 -6 -5 -13 4 -10 -2 -13 -19 -9 -13 2 -21 8
-18 13 3 5 10 7 15 4 5 -3 6 1 2 11 -5 15 -7 14 -17 -2 -14 -25 -14 -36 -2
-54 8 -12 8 -13 -4 -2 -19 17 -35 15 -21 -2 8 -10 9 -16 1 -21 -6 -4 -9 -1 -8
6 2 6 -12 18 -30 25 -30 13 -32 13 -32 -5 0 -11 -5 -23 -12 -27 -8 -5 -9 -2
-5 10 4 10 5 22 2 26 -7 11 -35 1 -35 -12 0 -6 8 -4 18 3 15 13 16 12 3 -3
-17 -23 -18 -23 -33 7 l-13 25 -14 -23 c-13 -20 -13 -21 2 -8 11 9 17 10 17 2
0 -10 -14 -15 -34 -12 -4 1 -15 -4 -24 -11 -12 -10 -14 -10 -8 0 4 6 3 12 -1
12 -5 0 -15 -6 -22 -12 -9 -8 -11 -8 -8 -2 8 14 -20 27 -28 14 -4 -6 -1 -10 6
-10 7 0 9 -3 6 -6 -4 -4 -13 -2 -21 5 -10 8 -16 9 -19 1 -3 -6 -4 -5 -3 2 2 7
9 12 15 10 7 -1 9 2 6 8 -4 6 -12 9 -18 7 -7 -2 -24 2 -39 9 -25 13 -28 12
-39 -8 -7 -13 -11 -24 -10 -26 2 -2 -1 -7 -5 -10 -4 -4 -4 -1 0 6 9 15 -5 16
-22 2 -6 -6 -10 -7 -7 -4 5 8 -14 27 -43 43 -18 10 -23 9 -28 -3 -3 -9 -15
-13 -30 -10 -13 2 -24 0 -24 -5 0 -6 9 -8 21 -6 18 4 19 2 7 -12 -11 -15 -11
-16 7 -9 15 5 17 4 8 -5 -14 -14 -30 -5 -52 32 l-18 29 0 -30 c0 -17 5 -27 10
-23 6 3 7 1 3 -6 -6 -9 -11 -9 -22 0 -13 11 -18 6 -15 -14 1 -5 -3 -6 -9 -2
-8 5 -7 11 1 21 11 13 8 16 -18 13 -4 0 -11 8 -15 18 -7 16 -8 16 -5 -2 2 -11
9 -19 16 -17 7 1 10 -2 6 -7 -3 -6 -13 -7 -23 -4 -15 6 -16 5 -2 -13 14 -18
14 -18 -4 -4 -18 14 -19 13 -14 -2 4 -9 1 -19 -7 -22 -13 -5 -12 12 4 39 9 17
10 35 1 40 -5 3 -7 -4 -5 -15 2 -11 0 -20 -4 -20 -14 0 -31 26 -23 35 4 5 1 5
-5 1 -10 -5 -9 -12 3 -31 10 -16 12 -25 4 -30 -6 -3 -7 -12 -3 -18 4 -7 -1 -5
-12 3 -17 14 -17 13 -11 -10 l7 -25 -15 25 c-9 14 -16 22 -17 18 -2 -13 -6
-27 -9 -35 -1 -5 -2 -11 -1 -15 0 -5 -4 -8 -10 -8 -6 0 -9 7 -5 15 3 8 -3 19
-12 25 -16 11 -16 11 0 6 11 -3 22 2 29 16 9 17 13 18 20 7 7 -12 9 -11 9 1 0
12 2 12 9 1 5 -7 11 -9 13 -5 3 5 -4 18 -16 29 -11 11 -18 16 -13 10 4 -5 7
-13 7 -17 0 -4 -3 -7 -7 -7 -21 3 -33 -3 -33 -17 0 -8 -4 -12 -10 -9 -13 8
-52 -19 -43 -29 4 -4 -5 -5 -20 -2 -24 4 -26 3 -17 -14 7 -13 7 -21 0 -25 -6
-4 -7 -12 -4 -18 4 -7 3 -8 -2 -4 -5 5 -9 18 -9 29 0 27 -30 32 -32 6 -2 -20
-1 -20 13 -2 13 17 13 15 0 -12 -8 -17 -12 -35 -8 -39 4 -5 2 -5 -5 -1 -7 4
-10 13 -7 20 7 18 -12 30 -22 15 -5 -8 -3 -9 6 -4 9 6 11 4 6 -4 -5 -7 -14
-10 -22 -7 -9 4 -14 -2 -14 -16 0 -17 2 -18 15 -8 13 11 14 10 9 -4 -3 -9 -10
-16 -14 -16 -12 0 -30 26 -23 33 3 4 4 7 1 7 -3 0 -12 -8 -19 -17 -8 -9 -9
-14 -3 -10 7 4 15 0 18 -9 5 -12 2 -15 -9 -10 -9 3 -13 2 -10 -4 10 -17 -7
-11 -20 7 -9 13 -14 13 -20 3 -5 -7 -4 -11 1 -8 5 3 18 -6 28 -20 11 -14 13
-22 6 -17 -10 6 -12 4 -7 -8 3 -9 1 -19 -5 -23 -7 -4 -8 -3 -4 4 5 8 0 12 -13
12 -10 0 -22 6 -24 13 -3 6 -6 2 -6 -10 -1 -12 -4 -29 -8 -39 -4 -12 -3 -15 5
-10 19 11 14 -5 -5 -20 -17 -12 -17 -13 -1 -14 9 0 19 -4 22 -8 3 -5 -5 -8
-17 -8 -16 1 -22 -5 -22 -22 0 -24 -31 -55 -46 -46 -12 7 -11 -7 0 -26 6 -8 8
-17 5 -22 -6 -10 -54 12 -54 26 0 6 5 5 12 -2 15 -15 28 -16 28 -2 0 6 -6 10
-14 10 -8 0 -18 5 -21 11 -4 6 0 9 10 7 28 -5 27 15 -3 37 -21 15 -24 15 -13
2 7 -9 9 -17 4 -17 -5 0 -9 -19 -8 -42 1 -29 5 -42 14 -40 7 1 10 -2 6 -8 -3
-6 -10 -8 -15 -5 -4 2 -8 -13 -8 -35 -1 -29 3 -38 11 -33 9 5 8 2 0 -9 -19
-22 -19 -2114 0 -2137 9 -11 9 -13 0 -8 -9 6 -11 -5 -10 -38 1 -30 6 -45 16
-45 11 0 11 3 0 17 -12 14 -12 16 0 8 11 -6 13 -4 8 11 -7 18 -7 18 8 0 8 -11
15 -16 15 -12 0 5 6 3 13 -3 8 -6 18 -7 22 -3 5 4 5 1 1 -5 -4 -7 -2 -13 4
-13 7 0 9 -8 4 -22 -6 -20 -5 -21 9 -10 12 10 17 10 23 1 4 -7 3 -9 -4 -5 -6
3 -13 2 -16 -3 -4 -5 3 -13 15 -16 15 -5 18 -10 9 -15 -6 -4 -11 -10 -11 -14
1 -3 1 -7 0 -8 -7 -25 -7 -48 1 -48 6 0 9 3 9 8 -3 19 2 32 12 32 8 0 8 -5 -1
-15 -7 -8 -9 -15 -5 -15 4 0 2 -6 -4 -14 -8 -9 -8 -16 -2 -20 6 -4 7 -14 4
-24 -3 -9 -3 -14 1 -11 7 6 17 42 18 67 2 15 11 6 14 -13 1 -8 -2 -15 -8 -15
-6 0 -4 -7 3 -17 10 -11 10 -14 2 -9 -7 4 -13 2 -13 -3 0 -6 4 -11 9 -11 5 0
11 -6 14 -13 2 -6 3 -4 2 6 -2 9 1 17 6 17 4 0 6 8 3 18 -5 13 -4 14 4 3 6 -8
8 -21 5 -30 -3 -11 0 -10 12 4 17 20 17 20 10 -5 -7 -20 -5 -23 6 -14 16 13
51 15 43 3 -2 -5 -11 -6 -18 -3 -8 3 -17 1 -20 -5 -4 -6 -14 -8 -24 -5 -15 5
-15 4 -2 -5 9 -5 28 -8 42 -7 25 3 25 2 13 -28 -13 -30 -12 -32 11 -34 15 -1
23 2 19 8 -4 6 -11 8 -16 5 -5 -3 -6 1 -3 9 3 9 10 16 16 16 5 0 7 -4 3 -9 -3
-5 -1 -12 4 -16 6 -3 8 -12 4 -20 -3 -8 0 -15 7 -15 6 0 9 -4 6 -8 -9 -15 33
-10 46 6 9 11 10 14 1 8 -7 -4 -13 -2 -13 3 0 6 7 11 16 11 11 0 14 -5 9 -17
-17 -44 -17 -47 3 -24 12 13 22 28 22 34 0 5 7 4 15 -3 8 -7 12 -16 9 -21 -3
-5 0 -9 5 -9 6 0 11 6 11 13 0 6 5 4 11 -6 6 -9 14 -15 20 -12 12 8 11 -6 -1
-25 -8 -13 -10 -12 -10 4 0 14 -3 16 -13 7 -8 -6 -17 -8 -20 -4 -4 3 -7 1 -7
-6 0 -6 7 -11 16 -9 10 2 19 -3 21 -10 3 -8 -1 -10 -14 -5 -19 7 -18 5 10 -17
10 -7 17 -9 16 -4 -4 20 2 35 11 29 5 -3 7 -12 4 -19 -3 -8 -1 -17 5 -21 6 -3
9 0 5 8 -8 21 26 17 59 -6 l29 -20 -13 21 c-7 11 -16 20 -20 19 -4 -1 -9 2
-11 7 -1 6 9 11 24 11 15 1 25 -2 21 -8 -3 -5 0 -7 8 -5 8 3 13 11 11 17 -1 7
2 10 7 7 11 -7 9 -32 -4 -43 -4 -4 -6 -3 -2 2 3 6 -3 11 -14 11 -24 0 -10 -15
20 -21 13 -2 19 0 15 7 -4 6 -1 9 7 6 8 -3 13 -11 11 -17 -1 -7 2 -10 7 -7 5
4 8 19 5 34 l-4 27 16 -28 c15 -27 34 -29 34 -2 0 8 4 17 10 20 12 8 9 -37 -4
-47 -5 -3 2 -5 16 -5 16 1 24 7 21 14 -3 7 -10 10 -17 6 -6 -4 -4 2 4 13 22
29 24 30 17 13 -7 -21 11 -39 31 -32 11 5 13 3 7 -7 -5 -9 -4 -11 4 -6 7 4 9
17 6 29 -5 19 -5 20 5 4 13 -20 32 -23 24 -3 -3 7 2 16 12 20 14 5 15 4 4 -9
-8 -9 -9 -15 -2 -15 6 0 16 8 22 18 11 16 11 16 6 0 -3 -10 -1 -20 4 -23 6 -4
10 1 10 9 0 9 4 16 10 16 5 0 7 -6 4 -14 -3 -7 2 -16 11 -20 13 -5 15 -1 10
17 -5 19 -4 20 5 5 13 -21 32 -24 24 -4 -3 7 2 16 12 20 14 5 15 4 4 -9 -8 -9
-9 -15 -2 -15 6 0 16 8 22 18 11 16 11 16 6 0 -3 -10 -1 -20 4 -23 6 -4 10 1
10 9 0 9 4 16 10 16 5 0 7 -7 4 -15 -4 -8 -1 -15 6 -15 6 0 8 -5 4 -12 -4 -7
-3 -8 5 -4 7 4 9 17 6 29 -5 19 -5 20 5 5 13 -21 32 -24 24 -4 -3 7 2 16 12
20 14 5 15 4 4 -9 -8 -9 -9 -15 -2 -15 6 0 16 8 22 18 11 16 11 16 6 0 -3 -10
-1 -20 4 -23 6 -4 10 1 10 9 0 9 4 16 10 16 5 0 7 -6 4 -14 -3 -7 2 -16 11
-20 13 -5 15 -1 10 17 -5 19 -4 20 5 5 13 -21 32 -24 24 -4 -3 7 2 16 12 20
14 5 15 4 4 -9 -8 -9 -9 -15 -2 -15 6 0 16 8 22 17 11 17 11 17 6 1 -3 -10 -1
-20 4 -23 6 -4 10 1 10 9 0 9 4 16 10 16 5 0 7 -7 4 -15 -4 -8 -1 -15 6 -15 6
0 8 -5 4 -12 -4 -7 -3 -8 5 -4 7 4 9 17 6 29 -5 19 -5 20 5 5 13 -21 32 -24
24 -4 -3 7 2 16 12 20 14 5 15 4 4 -9 -8 -9 -9 -15 -2 -15 6 0 16 8 22 17 11
17 11 17 6 1 -3 -10 -1 -20 4 -23 6 -4 10 1 10 9 0 9 4 16 10 16 5 0 7 -6 4
-14 -3 -7 2 -16 11 -20 13 -5 15 -1 10 17 -5 19 -4 20 5 5 13 -21 32 -24 24
-4 -3 7 2 16 12 20 14 5 15 4 4 -9 -8 -9 -9 -15 -2 -15 6 0 16 8 22 17 11 17
11 17 6 1 -3 -10 -1 -20 4 -23 6 -4 10 1 10 9 0 9 4 16 10 16 5 0 7 -7 4 -15
-4 -8 -1 -15 6 -15 6 0 8 -5 4 -12 -4 -7 -3 -8 5 -4 7 4 9 17 6 29 -5 19 -5
20 5 5 13 -21 32 -24 24 -4 -3 7 2 16 12 20 14 5 15 4 4 -9 -8 -9 -9 -15 -2
-15 6 0 16 8 22 17 11 17 11 17 6 1 -3 -10 -1 -20 4 -23 6 -4 10 1 10 9 0 9 4
16 10 16 5 0 7 -6 4 -14 -3 -7 2 -16 11 -20 13 -5 15 -1 10 17 -5 19 -4 20 5
5 13 -21 32 -24 24 -4 -3 7 2 16 12 20 14 5 15 4 4 -9 -8 -9 -9 -15 -2 -15 6
0 16 8 22 18 11 16 11 16 6 0 -3 -10 -1 -20 4 -23 6 -4 10 1 10 9 0 9 4 16 10
16 5 0 7 -7 4 -15 -4 -8 -1 -15 6 -15 6 0 8 -5 4 -12 -4 -7 -3 -8 5 -4 7 4 9
17 6 29 -5 19 -5 20 5 4 13 -20 32 -23 24 -3 -3 7 2 16 12 20 14 5 15 4 4 -9
-8 -9 -9 -15 -2 -15 6 0 16 8 22 18 11 16 11 16 6 0 -3 -10 -1 -20 4 -23 6 -4
10 1 10 9 0 9 4 16 10 16 5 0 7 -6 4 -14 -3 -7 2 -16 11 -20 13 -5 15 -1 10
17 -5 19 -4 20 5 5 13 -21 32 -24 24 -4 -3 8 0 17 7 22 9 5 10 2 6 -9 -4 -11
-1 -17 9 -17 8 0 13 4 10 8 -3 5 4 8 15 7 22 -1 41 -24 33 -37 -3 -4 -1 -8 4
-8 6 0 13 7 16 16 4 10 2 13 -7 8 -6 -4 -9 -4 -5 1 4 4 2 15 -5 23 -11 13 -9
14 11 1 12 -8 25 -22 28 -33 5 -15 8 -16 15 -5 5 8 9 19 9 24 0 6 -5 3 -10 -5
-6 -9 -10 -10 -10 -3 0 6 4 14 9 18 12 7 33 -29 24 -39 -3 -3 -1 -6 5 -6 13 0
11 27 -3 50 -7 12 -6 13 6 4 8 -6 24 -10 37 -9 23 2 48 -26 35 -39 -3 -3 -2
-6 4 -6 6 0 14 7 17 16 4 10 2 13 -7 8 -6 -4 -9 -4 -5 1 4 4 2 15 -5 23 -11
13 -9 14 11 1 12 -8 25 -22 28 -33 5 -15 8 -16 15 -5 5 8 9 19 9 24 0 6 -5 3
-10 -5 -6 -9 -10 -10 -10 -3 0 6 4 14 9 18 12 7 33 -29 24 -39 -3 -3 -1 -6 5
-6 13 0 11 27 -3 50 -7 12 -6 13 6 4 8 -6 24 -10 37 -9 23 2 48 -26 35 -39 -3
-3 -2 -6 4 -6 6 0 14 7 17 16 4 10 2 13 -7 8 -6 -4 -9 -4 -5 1 4 4 2 15 -5 23
-11 13 -9 14 11 1 12 -8 25 -22 28 -33 5 -15 8 -16 15 -5 5 8 9 19 9 24 0 6
-5 3 -10 -5 -6 -9 -10 -10 -10 -3 0 6 4 14 9 18 12 7 33 -29 24 -39 -3 -3 -1
-6 5 -6 13 0 11 27 -3 50 -7 12 -6 13 6 4 8 -6 24 -10 37 -9 23 2 48 -26 35
-39 -3 -3 -2 -6 4 -6 6 0 14 7 17 16 4 10 2 13 -7 8 -6 -4 -9 -4 -5 1 4 4 2
15 -5 23 -11 13 -9 14 11 1 12 -8 25 -22 28 -33 5 -15 8 -16 15 -5 5 8 9 19 9
24 0 6 -5 3 -10 -5 -6 -9 -10 -10 -10 -3 0 6 4 14 9 18 12 7 33 -29 24 -39 -3
-3 -1 -6 5 -6 7 0 12 5 12 10 0 6 7 10 16 10 8 0 13 -4 10 -9 -4 -5 5 -4 19 2
14 7 25 19 25 27 0 13 1 13 10 0 7 -11 5 -18 -6 -26 -13 -10 -11 -12 9 -10 18
1 22 6 19 22 -2 13 3 24 14 28 14 5 15 4 5 -8 -16 -19 -6 -37 16 -29 12 5 14
3 8 -7 -5 -9 -4 -11 3 -6 7 4 12 16 12 27 0 10 4 19 10 19 5 0 7 -7 4 -15 -4
-8 -1 -15 5 -15 6 0 11 8 11 18 0 14 2 15 10 2 7 -11 5 -18 -6 -26 -13 -10
-11 -12 9 -10 18 1 22 6 19 22 -2 14 3 24 15 28 14 6 16 5 6 -5 -7 -7 -13 -18
-13 -24 1 -5 10 1 20 14 11 13 20 19 20 14 0 -5 -5 -14 -11 -20 -7 -7 -6 -12
5 -16 11 -5 16 0 16 13 0 11 4 20 10 20 5 0 7 -7 4 -15 -4 -8 -1 -15 5 -15 6
0 11 8 11 18 0 14 2 15 10 2 7 -11 5 -18 -6 -26 -13 -10 -11 -12 9 -10 18 1
22 6 19 22 -2 14 3 24 15 28 14 6 16 5 6 -5 -7 -7 -13 -18 -13 -24 1 -5 10 1
20 14 11 13 20 19 20 14 0 -5 -5 -14 -12 -21 -9 -9 -9 -12 1 -12 7 0 9 -5 5
-12 -4 -7 -3 -8 4 -4 7 4 12 16 12 27 0 10 4 19 10 19 5 0 7 -7 4 -15 -4 -8
-1 -15 5 -15 6 0 11 8 11 18 0 14 2 15 10 2 7 -11 5 -18 -6 -26 -13 -10 -11
-12 9 -10 18 1 22 6 19 22 -2 14 3 24 15 28 14 6 16 5 6 -5 -7 -7 -13 -18 -13
-24 1 -5 10 1 20 14 11 13 20 19 20 14 0 -5 -5 -14 -11 -20 -7 -7 -6 -12 5
-16 11 -5 16 0 16 13 0 11 4 20 10 20 5 0 7 -7 4 -15 -4 -8 -1 -15 5 -15 6 0
11 8 11 18 0 14 2 15 10 2 7 -11 5 -18 -6 -26 -13 -10 -11 -12 9 -10 22 1 24
4 16 26 -8 21 -7 22 3 9 13 -16 19 -19 39 -19 5 0 7 -6 3 -12 -4 -8 -2 -8 7 1
9 9 10 15 3 18 -6 2 -20 11 -30 19 -16 13 -15 13 13 -1 30 -14 33 -14 42 3 6
9 11 12 11 7 0 -6 -5 -16 -12 -23 -9 -9 -9 -12 0 -12 6 0 15 8 21 17 5 10 12
15 16 11 4 -3 -2 -15 -13 -26 -20 -20 -20 -20 3 -18 13 0 21 4 19 8 -2 3 -1
13 2 21 5 13 9 12 26 -5 l20 -20 19 28 c10 16 19 24 19 19 0 -6 -5 -16 -12
-23 -9 -9 -9 -12 0 -12 6 0 15 8 21 17 5 10 12 15 16 11 4 -3 -2 -15 -13 -26
-20 -20 -20 -20 3 -18 13 0 21 4 19 8 -2 3 -1 13 2 21 5 14 8 13 23 -1 10 -9
16 -21 14 -27 -3 -5 5 1 16 15 11 14 21 29 21 34 0 5 3 6 6 3 4 -4 1 -13 -6
-22 -8 -9 -9 -15 -2 -15 6 0 15 8 21 17 5 10 12 15 16 11 4 -3 -2 -15 -13 -26
-20 -20 -20 -20 3 -18 13 0 21 4 19 8 -2 3 -1 13 2 21 5 13 9 12 26 -5 l20
-20 19 28 c10 16 19 24 19 19 0 -6 -5 -16 -12 -23 -9 -9 -9 -12 0 -12 6 0 15
8 21 17 5 10 12 15 16 11 4 -3 -2 -15 -13 -26 -20 -20 -20 -20 3 -18 13 0 21
4 19 8 -2 3 -1 13 2 21 5 14 8 13 23 -1 10 -9 16 -21 14 -27 -3 -5 5 1 16 15
11 14 21 29 21 34 0 5 3 6 6 3 4 -4 1 -13 -6 -22 -8 -9 -9 -15 -2 -15 6 0 15
8 21 17 5 10 12 15 16 11 4 -3 -2 -15 -13 -26 -20 -20 -20 -20 3 -18 13 0 21
4 18 8 -2 5 1 16 7 25 10 16 11 16 5 -2 -3 -11 -3 -16 1 -13 4 4 15 3 26 -3
16 -9 18 -7 14 15 -5 25 -4 26 24 11 33 -17 44 -19 36 -7 -3 5 4 8 15 7 22 -1
41 -24 33 -37 -3 -4 -1 -8 4 -8 6 0 13 7 16 16 4 10 2 13 -7 8 -6 -4 -9 -4 -5
1 4 4 2 15 -5 23 -11 13 -9 14 11 1 12 -8 25 -22 28 -33 5 -15 8 -16 15 -5 5
8 9 19 9 24 0 6 -5 3 -10 -5 -6 -9 -10 -10 -10 -3 0 6 4 14 9 18 12 7 33 -29
24 -39 -3 -3 -1 -6 5 -6 13 0 11 27 -3 50 -7 12 -6 13 6 4 8 -6 24 -10 37 -9
23 2 48 -26 35 -39 -3 -3 -2 -6 4 -6 6 0 14 7 17 16 4 10 2 13 -7 8 -6 -4 -9
-4 -5 1 4 4 2 15 -5 23 -11 13 -9 14 11 1 12 -8 25 -22 28 -33 5 -15 8 -16 15
-5 5 8 9 19 9 24 0 6 -5 3 -10 -5 -6 -9 -10 -10 -10 -3 0 6 4 14 9 18 12 7 33
-29 24 -39 -3 -3 -1 -6 5 -6 13 0 11 27 -3 50 -7 12 -6 13 6 4 8 -6 24 -10 37
-9 23 2 48 -26 35 -39 -3 -3 -2 -6 4 -6 6 0 14 7 17 16 4 10 2 13 -7 8 -6 -4
-9 -4 -5 1 4 4 2 15 -5 23 -11 13 -9 14 11 1 12 -8 25 -22 28 -33 5 -15 8 -16
15 -5 5 8 9 19 9 24 0 6 -5 3 -10 -5 -6 -9 -10 -10 -10 -3 0 6 4 14 9 18 12 7
33 -29 24 -39 -3 -3 -1 -6 5 -6 13 0 11 27 -3 50 -7 12 -6 13 6 4 8 -6 24 -10
37 -9 23 2 48 -26 35 -39 -3 -3 -2 -6 4 -6 6 0 14 7 17 16 4 10 2 13 -7 8 -6
-4 -9 -4 -5 1 4 4 2 15 -5 24 -11 14 -10 15 8 1 26 -20 35 -32 29 -42 -3 -4
-1 -8 5 -8 5 0 12 6 14 13 4 9 8 8 16 -3 8 -12 10 -11 8 7 -1 22 -15 26 -30 8
-5 -6 -7 -5 -5 3 2 8 7 13 12 12 5 -1 12 4 16 10 5 9 10 6 15 -9 6 -21 35 -30
35 -10 0 5 -5 7 -12 3 -7 -4 -8 -3 -4 4 4 7 2 12 -5 12 -7 0 -9 3 -6 6 4 4 13
2 21 -5 11 -9 15 -9 20 1 3 7 3 3 1 -8 -5 -21 20 -42 33 -29 3 3 0 5 -6 5 -7
0 -12 7 -12 15 0 9 6 12 17 8 9 -4 14 -2 10 3 -3 6 -1 16 4 24 6 10 8 2 5 -25
-3 -22 -2 -32 0 -23 7 22 8 22 42 1 15 -9 24 -13 20 -9 -4 5 -3 17 3 27 7 15
6 17 -6 13 -8 -3 -12 -10 -9 -15 9 -15 -13 -10 -26 6 -11 13 -10 14 6 8 16 -6
17 -4 7 8 -10 13 -10 16 2 16 8 0 11 -5 8 -10 -3 -5 0 -7 8 -5 8 3 13 12 11
19 -2 8 0 10 5 6 4 -5 8 -12 8 -15 0 -4 7 -17 16 -30 14 -19 17 -20 23 -7 3 9
11 13 17 10 6 -4 5 2 -2 13 -7 12 -17 18 -22 15 -5 -3 -4 -9 3 -13 9 -5 9 -9
1 -14 -6 -4 -11 -2 -11 3 0 20 -2 26 -11 38 -11 12 7 30 18 19 4 -3 1 -6 -6
-6 -7 0 -9 -5 -6 -10 5 -8 11 -7 21 1 7 6 11 15 8 20 -3 5 0 9 5 9 6 0 11 -4
11 -10 0 -5 5 -10 11 -10 6 0 9 7 5 15 -4 12 -2 13 13 6 18 -10 31 -6 31 11 0
5 -4 7 -8 4 -5 -3 -9 1 -9 8 0 7 6 13 13 13 7 0 11 -4 8 -9 -3 -4 0 -8 5 -8 7
0 7 -7 -1 -20 -7 -11 -19 -18 -26 -15 -7 3 -11 1 -8 -3 3 -5 -1 -9 -9 -10 -8
-1 -22 -3 -30 -4 -12 -1 -12 -4 -3 -16 10 -12 14 -11 25 5 8 10 15 16 16 14 1
-2 12 -1 25 3 12 4 20 11 17 16 -10 16 25 19 35 2 11 -16 11 -16 6 0 -7 23 9
31 36 18 19 -9 21 -9 8 2 -8 7 -22 22 -30 33 -12 16 -9 15 20 -5 19 -13 29
-17 22 -8 -16 20 -3 30 30 25 13 -2 17 -2 9 0 -11 4 -11 7 -2 13 9 5 8 9 -4
13 -9 4 -14 3 -11 -1 3 -5 0 -9 -7 -9 -7 0 -20 -4 -29 -8 -11 -4 -18 -3 -18 4
0 6 3 10 8 10 22 -4 34 3 29 16 -4 8 -1 17 5 21 7 5 8 2 3 -6 -5 -8 -3 -11 6
-8 8 3 13 11 11 18 -3 15 16 40 31 40 6 0 2 -6 -9 -14 -10 -8 -16 -18 -12 -22
4 -4 3 -13 -3 -21 -7 -8 -8 -13 -1 -13 5 0 13 7 16 16 3 8 11 12 17 8 8 -4 9
-3 5 5 -4 6 -12 8 -18 5 -7 -4 -8 -2 -4 4 4 7 16 12 27 12 11 0 27 7 36 15 8
8 19 13 24 10 5 -4 9 -1 9 5 0 6 -8 9 -17 6 -10 -3 -25 -1 -33 5 -13 9 -12 10
3 5 12 -4 16 -2 11 6 -5 8 -2 9 9 5 10 -4 16 -2 14 5 -1 6 4 13 12 16 9 3 11
0 6 -8 -5 -9 -4 -11 4 -6 9 6 9 11 1 21 -8 10 -7 16 7 24 11 6 13 11 6 12 -7
1 -19 2 -25 3 -15 2 -11 28 5 38 6 4 17 2 24 -4 12 -10 17 -4 14 15 0 4 4 7 9
7 6 0 10 -5 10 -12 0 -6 2 -9 5 -6 3 3 3 13 -1 22 -5 13 -9 14 -20 5 -13 -11
-16 -7 -13 17 0 4 -5 11 -13 16 -10 8 -10 9 2 5 8 -2 14 -10 12 -16 -3 -14 29
-11 41 4 5 6 7 3 3 -7 -3 -10 -2 -19 2 -22 4 -2 8 20 9 50 2 41 -1 53 -10 47
-8 -5 -8 -2 1 9 10 13 13 237 12 1153 -2 981 -4 1134 -16 1118 -13 -17 -14
-17 -7 1 5 15 3 18 -10 13 -9 -3 -19 -2 -22 3 -4 6 2 10 12 10 14 0 12 3 -7
13 -14 7 -26 18 -26 25 -3 29 -4 32 -13 32 -8 0 -8 -21 -1 -40 1 -3 2 -9 1
-13 -1 -5 4 -5 10 -1 7 4 9 3 6 -3 -8 -13 27 -45 38 -36 5 5 4 1 -3 -9 -10
-12 -10 -18 -1 -24 8 -5 10 -3 4 7 -7 12 -6 12 6 0 11 -10 11 -15 1 -18 -6 -3
-9 -10 -5 -16 4 -7 -2 -5 -13 3 -10 8 -21 16 -23 17 -2 1 2 10 10 19 12 15 11
16 -11 11 -14 -4 -19 -4 -12 -1 6 3 12 10 12 15 0 6 -5 7 -10 4 -6 -4 -9 -1
-8 7 2 7 -3 12 -11 10 -11 -2 -12 0 -3 11 14 17 6 27 -16 20 -11 -3 -13 -2 -6
4 16 11 23 59 12 75 -8 10 -9 9 -5 -4 6 -16 -20 -35 -31 -23 -3 3 0 5 6 5 7 0
12 10 12 23 0 18 -2 19 -10 7 -8 -12 -10 -12 -10 -1 0 10 -3 11 -13 3 -10 -8
-13 -6 -13 7 0 10 6 18 13 18 7 0 13 -3 13 -7 0 -3 9 -6 20 -7 11 -1 20 2 20
8 0 5 -3 8 -7 8 -22 -4 -33 2 -27 14 5 9 4 9 -7 -1 -11 -10 -15 -8 -25 9 -10
19 -12 19 -17 5 -5 -12 -3 -15 6 -10 7 4 7 1 -2 -7 -10 -10 -15 -11 -18 -2
-10 26 -45 63 -55 57 -6 -4 -8 -2 -4 4 3 6 -2 12 -11 14 -15 3 -14 5 5 10 14
4 20 2 15 -4 -4 -7 -1 -8 7 -3 9 6 11 4 5 -5 -6 -9 -4 -11 5 -5 9 5 11 4 6 -3
-5 -8 -1 -10 9 -5 12 4 13 8 5 13 -7 4 -8 10 -4 12 5 3 4 4 -2 2 -17 -4 -33
16 -27 34 5 10 2 13 -6 8 -7 -5 -10 -13 -8 -20 3 -7 -4 -13 -15 -13 -15 -2
-17 1 -9 11 16 19 -7 36 -41 29 -21 -4 -32 -1 -43 13 -7 10 -11 23 -8 29 4 5
3 7 -2 3 -4 -4 -15 -2 -23 5 -12 9 -16 9 -19 0 -3 -7 -9 -13 -14 -13 -6 0 -7
5 -4 10 3 6 1 10 -5 10 -6 0 -8 6 -4 13 4 6 4 9 -1 5 -11 -11 -47 11 -39 24 4
7 2 8 -5 4 -8 -6 -9 -12 -2 -20 6 -7 8 -16 4 -20 -4 -4 0 -4 9 -1 11 4 20 -1
28 -15 7 -13 17 -19 26 -16 11 4 12 2 5 -13 -7 -12 -7 -21 0 -28 6 -6 5 -10
-5 -10 -8 0 -12 5 -9 10 4 7 -1 8 -13 4 -19 -7 -19 -7 0 8 17 13 17 15 3 21
-10 3 -17 12 -17 20 0 18 -5 18 -38 -2 -16 -9 -20 -10 -11 -2 15 12 15 16 2
38 -12 21 -14 21 -10 5 2 -11 -3 -27 -11 -35 -14 -13 -15 -12 -9 3 3 9 2 27
-4 39 l-10 23 5 -22 c2 -13 0 -23 -6 -23 -5 0 -6 -6 -2 -12 6 -10 5 -10 -8 -1
-8 7 -19 9 -23 5 -5 -4 -5 -1 -1 6 4 7 2 12 -5 12 -7 0 -9 3 -6 6 4 4 13 2 20
-4 10 -9 14 -9 14 1 0 8 -14 13 -34 14 -18 0 -33 -4 -33 -9 0 -5 4 -6 10 -3 6
4 7 -1 3 -11 -5 -13 -3 -15 7 -9 9 5 11 4 6 -3 -5 -8 -13 -9 -24 -3 -9 4 -25
7 -35 6 -9 -2 -15 1 -11 6 7 12 -10 11 -22 -1 -7 -7 -11 -6 -11 4 0 8 4 13 8
10 4 -2 11 0 14 6 4 6 1 9 -7 8 -7 -2 -12 3 -10 10 1 6 -3 12 -8 12 -6 0 -10
-6 -9 -12 3 -29 -2 -38 -21 -35 -11 2 -22 6 -26 10 -4 3 3 5 15 2 11 -2 21 1
21 6 0 6 -6 9 -12 6 -7 -2 -25 2 -41 10 -24 12 -28 12 -33 -2 -4 -9 -4 -19 0
-22 3 -4 6 1 6 10 0 10 6 14 14 11 19 -7 27 -41 10 -41 -7 0 -11 4 -8 8 7 12
-39 7 -55 -5 -11 -8 -13 -8 -7 2 4 6 3 12 -1 12 -5 0 -15 -6 -22 -12 -9 -8
-11 -8 -8 -2 4 7 0 14 -8 18 -17 6 -30 -10 -15 -17 6 -3 5 -4 -1 -3 -7 1 -14
12 -16 24 -3 20 -1 21 18 11 27 -14 70 -19 63 -7 -3 5 -11 7 -18 5 -7 -3 -23
1 -36 8 -22 12 -27 10 -52 -14 -29 -27 -68 -37 -68 -17 0 6 -5 4 -11 -4 -8
-12 -9 -10 -4 8 6 22 -1 27 -34 23 -8 -2 -10 2 -5 11 6 10 4 10 -9 -1 -11 -9
-17 -10 -17 -2 0 6 -7 11 -15 11 -8 0 -15 -5 -15 -11 0 -5 4 -8 9 -4 5 3 12 1
16 -5 4 -6 12 -7 18 -4 8 4 7 2 -1 -7 -11 -12 -14 -12 -22 1 -8 13 -10 13 -10
1 0 -11 -4 -9 -14 4 -8 11 -12 23 -9 28 2 4 -1 6 -9 5 -7 -2 -12 3 -10 10 1 6
-2 12 -8 12 -5 0 -10 -5 -10 -11 0 -5 -5 -7 -12 -3 -7 4 -8 3 -4 -4 4 -7 3
-12 -2 -12 -6 0 -9 -8 -7 -17 1 -10 0 -12 -2 -5 -3 7 -10 9 -16 5 -8 -4 -8 -2
1 9 13 16 7 48 -10 48 -7 0 -7 -4 0 -13 7 -8 6 -18 -4 -32 -14 -19 -15 -18 -8
10 7 27 6 29 -9 16 -9 -7 -14 -18 -10 -24 4 -6 1 -7 -6 -2 -9 5 -10 10 -2 18
6 6 11 14 11 18 0 13 -38 17 -51 5 -9 -8 -10 -8 -6 0 9 15 -13 31 -39 29 -16
-2 -21 4 -21 26 0 15 3 26 7 24 4 -2 7 2 7 9 0 7 -6 13 -13 13 -7 0 -11 -4 -8
-9 3 -4 1 -8 -5 -8 -19 0 -21 19 -4 30 17 11 17 11 -1 6 -13 -5 -17 -2 -13 9
4 8 2 17 -3 20 -4 3 -7 -6 -5 -20 1 -16 -2 -24 -9 -22 -6 2 -12 9 -12 15 -1 7
-3 14 -4 17 -1 3 -3 10 -4 17 0 6 -8 13 -16 15 -12 4 -12 3 -1 -5 10 -7 10
-11 1 -17 -14 -9 -21 -3 -25 22 -1 10 -7 17 -13 16 -6 -2 -20 10 -31 26 -16
22 -18 31 -8 41 10 12 9 12 -4 2 -9 -6 -20 -8 -24 -4 -5 4 -5 2 -2 -4 8 -13
-20 -40 -30 -30 -3 3 -1 6 5 6 7 0 12 5 12 11 0 5 -6 7 -12 4 -7 -4 -2 3 12
16 l25 22 -24 -8 c-18 -5 -22 -4 -16 5 5 9 4 11 -4 6 -6 -4 -9 -11 -7 -15 3
-4 1 -13 -4 -21 -6 -9 -8 -2 -7 21 2 18 6 40 10 47 5 7 4 12 -2 12 -6 0 -11
-4 -11 -10 0 -5 -4 -10 -9 -10 -5 0 -7 10 -5 23 4 20 4 21 -5 2 -6 -15 -5 -23
7 -32 9 -7 11 -13 5 -13 -7 0 -15 5 -18 10 -4 7 -13 7 -25 0 -16 -8 -18 -8
-14 5 3 8 10 13 14 10 12 -8 19 20 9 36 -5 8 -9 10 -9 4 0 -5 -5 -3 -10 5 -6
9 -10 10 -10 3 0 -7 8 -17 18 -22 9 -6 12 -11 5 -11 -6 0 -15 5 -18 10 -4 6
-10 8 -15 5 -10 -6 -40 22 -40 38 0 7 4 6 10 -3 6 -10 10 -11 10 -2 0 6 5 12
11 12 8 0 8 -4 0 -14 -7 -8 -8 -17 -3 -20 16 -10 21 32 6 45 -10 8 -14 8 -14
0 0 -6 -3 -10 -7 -10 -19 3 -34 -2 -29 -9 3 -5 -2 -9 -10 -9 -9 0 -11 4 -5 10
6 6 3 21 -9 42 -14 25 -16 36 -7 46 10 11 9 12 -1 3 -16 -14 -55 -6 -45 9 3 5
1 7 -5 3 -6 -3 -12 2 -14 11 -3 15 -5 14 -10 -5 -3 -12 -2 -20 2 -17 4 3 6 -4
3 -15 -7 -28 -21 -25 -18 4 2 14 -3 33 -11 43 -14 17 -14 16 -4 -4 7 -16 7
-23 0 -23 -5 0 -10 4 -10 9 0 4 -11 7 -25 6 -15 -2 -23 1 -19 7 4 6 1 8 -7 6
-8 -3 -13 -10 -12 -16 2 -6 -4 -9 -12 -5 -14 5 -13 7 1 18 12 8 14 14 6 19 -7
4 -12 2 -12 -3 0 -21 -16 -11 -17 11 -2 18 0 20 7 8 6 -9 10 -10 10 -3 0 6 -5
15 -10 18 -6 4 -8 10 -5 15 3 4 -3 14 -13 21 -15 13 -16 12 -4 -3 8 -10 9 -19
3 -22 -5 -4 -17 4 -25 16 -9 12 -16 16 -16 9 0 -11 -3 -11 -17 0 -16 13 -17
12 -4 -3 15 -21 2 -24 -18 -5 -10 8 -12 8 -7 0 4 -8 -1 -11 -14 -10 -12 1 -18
7 -16 14 3 7 1 15 -4 18 -4 3 -7 -6 -5 -20 1 -14 0 -23 -3 -20 -3 2 -12 -1
-20 -8 -13 -9 -14 -9 -8 1 4 7 2 12 -4 12 -6 0 -8 5 -5 10 3 6 2 10 -3 10 -6
0 -12 -7 -16 -15 -3 -8 0 -15 6 -15 6 0 8 -3 5 -6 -4 -4 -13 -2 -21 5 -11 9
-15 9 -20 -1 -3 -7 -3 -3 0 9 3 13 3 27 -1 32 -8 15 -35 1 -35 -17 0 -13 3
-12 15 4 15 19 21 9 7 -13 -9 -14 -44 -11 -50 5 -2 7 -8 12 -13 12 -6 0 -6 -7
0 -18 7 -14 6 -19 -4 -19 -8 0 -12 4 -9 8 7 12 -39 7 -55 -5 -11 -8 -13 -8 -8
0 4 7 0 15 -9 18 -8 3 -12 2 -9 -3 3 -5 0 -13 -6 -17 -8 -4 -9 -3 -5 4 4 7 2
12 -4 12 -6 0 -8 5 -5 10 3 6 2 10 -3 10 -6 0 -12 -7 -16 -15 -3 -8 0 -15 6
-15 6 0 8 -3 5 -6 -4 -4 -13 -2 -21 5 -8 7 -16 8 -18 4 -3 -4 -3 -2 -2 5 4 16
-4 15 -22 -3 -9 -8 -21 -15 -27 -15 -7 0 -4 5 6 11 9 5 17 17 17 26 0 14 3 14
25 -1 14 -9 25 -13 25 -8 0 5 -11 14 -25 20 -22 10 -27 9 -33 -6 -8 -19 -32
-28 -32 -12 0 6 -5 10 -10 10 -7 0 -6 -8 1 -22 11 -21 11 -22 -4 -10 -9 8 -25
11 -37 7 -14 -4 -20 -2 -20 8 0 8 -7 17 -15 21 -13 5 -14 2 -4 -15 6 -11 8
-23 5 -27 -3 -3 -6 0 -6 8 0 9 -9 11 -30 7 -22 -5 -30 -3 -30 7 0 8 -7 16 -15
20 -13 5 -14 2 -4 -15 6 -11 8 -23 5 -27 -3 -3 -6 0 -6 8 0 9 -9 11 -30 7 -22
-5 -30 -3 -30 7 0 8 -7 16 -15 20 -13 5 -14 2 -4 -15 6 -11 8 -23 5 -27 -3 -3
-6 0 -6 8 0 9 -9 11 -30 7 -22 -5 -30 -3 -30 7 0 8 -7 16 -15 20 -13 5 -14 2
-4 -15 6 -11 8 -23 5 -27 -3 -3 -6 0 -6 6 0 22 -40 13 -50 -10 -8 -22 -9 -22
-7 4 1 15 4 25 7 23 3 -2 12 0 19 4 10 6 9 10 -3 14 -8 3 -18 2 -22 -4 -4 -7
-10 -6 -19 1 -10 8 -15 8 -20 0 -5 -8 -14 -6 -28 7 -13 12 -17 13 -12 3z m58
-24 c3 -8 0 -19 -7 -25 -8 -7 -15 -4 -25 11 -7 11 -8 17 -2 14 5 -4 12 -2 16
4 8 13 12 13 18 -4z m928 -21 c14 9 11 -2 -7 -19 -8 -9 -20 -16 -27 -16 -6 0
-2 6 8 14 17 13 15 14 -29 12 -33 -1 -50 3 -52 12 -1 7 0 8 3 2 3 -8 9 -7 19
1 11 9 14 8 14 -2 0 -10 4 -9 16 3 15 14 19 15 31 2 8 -8 19 -12 24 -9z m-117
-13 c3 -5 -1 -9 -9 -9 -8 0 -12 4 -9 9 3 4 7 8 9 8 2 0 6 -4 9 -8z m-958 -47
c0 -13 -3 -22 -8 -19 -4 3 -6 10 -3 15 4 5 -1 12 -10 15 -13 5 -14 9 -4 15 17
10 23 4 25 -26z m-96 -4 c0 -5 -6 -14 -14 -20 -12 -10 -14 -9 -11 6 2 10 4 19
4 21 2 6 21 1 21 -7z m-40 -30 c0 -14 -2 -14 -10 -1 -9 14 -11 13 -14 -9 0 -5
-5 -13 -10 -18 -5 -5 -6 -3 -2 5 4 7 1 12 -8 12 -8 0 -14 -6 -12 -12 1 -7 1
-10 -1 -5 -3 4 -9 4 -14 1 -6 -4 -6 -11 1 -19 8 -9 8 -15 0 -20 -6 -4 -9 -3
-8 2 2 4 -1 8 -7 8 -5 0 -9 -3 -7 -7 4 -15 -16 -8 -21 6 -6 15 16 40 26 30 3
-3 12 5 21 18 18 28 66 35 66 9z m1316 1 c-10 -2 -22 0 -28 6 -6 6 0 7 19 4
21 -5 23 -7 9 -10z m114 -26 c0 -2 -7 -6 -15 -10 -8 -3 -14 0 -12 7 1 7 -5 12
-14 11 -9 -1 -16 5 -16 12 0 10 6 10 29 -2 15 -8 28 -16 28 -18z m4 -35 c3 -5
-2 -15 -12 -22 -16 -13 -16 -13 -2 5 14 18 13 19 -3 13 -11 -4 -16 -3 -12 3 8
12 22 13 29 1z m-1554 -23 c0 -5 -4 -7 -9 -4 -11 7 -43 -28 -34 -37 3 -4 1 -7
-6 -7 -7 0 -11 7 -8 15 4 8 1 17 -4 21 -13 8 31 32 49 26 6 -2 12 -8 12 -14z
m-127 -107 c-11 -2 -13 -5 -4 -11 9 -5 8 -9 -4 -13 -9 -4 -14 -3 -11 2 3 5 -1
14 -9 21 -22 18 -9 30 20 17 19 -9 21 -13 8 -16z m1828 -14 c-10 -9 -11 -8 -5
6 3 10 9 15 12 12 3 -3 0 -11 -7 -18z m140 -71 c5 3 8 2 7 -3 -1 -4 2 -18 6
-31 6 -19 10 -21 22 -11 12 10 20 7 12 -4 -2 -2 2 -10 9 -18 9 -11 8 -19 -3
-33 -8 -11 -14 -15 -14 -9 0 7 4 15 10 18 6 4 5 11 -3 19 -6 8 -15 12 -19 10
-4 -3 -10 2 -15 9 -4 7 -16 16 -25 20 -11 4 -15 12 -12 22 4 10 0 15 -11 15
-9 0 -14 -4 -10 -9 3 -5 1 -12 -4 -16 -6 -3 -8 3 -6 15 2 11 0 22 -6 25 -5 4
-9 1 -9 -6 0 -7 -3 -10 -6 -7 -3 3 0 15 8 27 13 21 13 20 36 -9 13 -17 28 -28
33 -24z m-2028 -16 c3 -11 1 -18 -4 -14 -5 3 -9 12 -9 20 0 20 7 17 13 -6z
m-79 -25 c-5 -11 -2 -13 12 -8 16 6 17 5 4 -9 -13 -13 -16 -14 -23 -2 -4 8 -5
19 -2 24 9 15 15 12 9 -5z m-30 -16 c-2 -4 2 -10 8 -12 8 -4 7 -6 -3 -6 -9 -1
-19 5 -22 12 -3 8 1 14 9 14 7 0 11 -4 8 -8z m-14 -30 c11 -8 9 -9 -10 -3 -22
6 -23 5 -11 -10 7 -9 9 -16 3 -16 -12 0 -23 26 -15 34 9 8 16 7 33 -5z m2265
-38 c-11 -10 -34 -9 -32 2 1 7 -4 11 -12 9 -12 -3 -12 0 -1 13 12 14 15 14 31
-1 11 -10 17 -20 14 -23z m231 -108 c16 -26 16 -27 0 -14 -15 13 -19 13 -27 0
-6 -10 -8 -7 -5 11 3 14 5 26 5 28 2 7 11 -1 27 -25z m-3226 -23 c-18 -11 -40
-1 -33 16 4 10 10 11 25 3 16 -8 18 -13 8 -19z m140 -2 c0 -5 -5 -6 -10 -3 -6
4 -18 1 -27 -7 -12 -9 -15 -9 -9 0 4 6 3 12 -3 12 -6 0 -8 6 -5 14 5 12 11 13
30 4 13 -6 24 -15 24 -20z m3184 -2 c-3 -9 -10 -13 -15 -10 -5 3 -3 11 4 19
15 16 19 13 11 -9z m120 -1 c-7 -16 -24 -21 -24 -6 0 8 7 13 27 20 1 1 0 -6
-3 -14z m563 -77 c2 -20 1 -21 -8 -5 -6 9 -14 15 -18 13 -4 -3 -7 6 -7 19 0
22 2 23 16 10 9 -8 16 -24 17 -37z m-4345 4 c-7 -2 -10 -7 -8 -11 3 -4 -4 -7
-14 -8 -11 -1 -22 2 -25 8 -3 5 1 6 9 3 9 -4 18 1 22 10 3 9 11 13 17 9 8 -5
7 -8 -1 -11z m4433 -11 c3 -5 0 -13 -6 -16 -5 -4 -8 -13 -6 -19 3 -7 -1 -13
-9 -13 -7 0 -10 5 -7 10 4 6 0 8 -8 5 -10 -4 -15 1 -15 12 0 10 4 17 7 14 4
-2 10 0 14 6 8 13 22 13 30 1z m65 -121 c0 -5 -2 -10 -4 -10 -3 0 -8 5 -11 10
-3 6 -1 10 4 10 6 0 11 -4 11 -10z m35 -29 c3 -5 2 -12 -3 -15 -5 -3 -9 1 -9
9 0 17 3 19 12 6z m-2320 -61 c-2 -11 1 -20 6 -20 6 0 7 -5 3 -12 -4 -7 -3 -8
4 -4 6 4 9 14 6 24 -5 14 -4 15 5 2 6 -8 8 -24 5 -35 -4 -18 -4 -18 6 -2 6 9
8 27 5 40 -4 15 -3 18 3 9 5 -8 12 -13 16 -12 3 0 14 -4 24 -10 15 -10 15 -11
0 -6 -9 2 -19 -1 -21 -8 -4 -9 4 -11 25 -8 24 4 29 2 23 -9 -7 -11 -4 -10 10
1 17 14 17 13 11 -10 -6 -22 -6 -23 5 -6 8 14 8 24 -1 45 -6 14 -8 23 -4 19 4
-4 12 -3 19 2 8 7 12 5 12 -5 0 -8 -4 -12 -9 -9 -4 3 -8 1 -8 -5 0 -15 18 -23
25 -11 4 6 10 8 15 5 5 -3 11 -1 15 5 3 5 11 10 18 10 6 0 1 -7 -11 -16 -13
-9 -19 -20 -15 -27 4 -7 0 -6 -10 2 -9 7 -17 11 -17 7 0 -3 0 -9 0 -13 -1 -16
31 -10 41 8 5 11 14 17 19 14 4 -3 10 0 12 7 3 7 7 5 11 -6 4 -10 3 -15 -3
-11 -6 3 -10 1 -10 -6 0 -7 8 -9 21 -6 30 8 51 -2 44 -22 -3 -10 3 -21 16 -29
13 -9 18 -9 14 -2 -4 7 0 10 11 8 11 -2 24 -12 31 -23 7 -11 12 -14 13 -7 0
19 20 14 21 -5 0 -16 1 -16 8 1 8 20 48 30 57 14 3 -4 9 -6 14 -3 4 3 6 -4 3
-15 -3 -11 -9 -17 -14 -14 -5 3 -6 10 -3 16 5 7 2 8 -6 3 -9 -5 -11 -4 -6 3 4
7 5 12 2 12 -15 0 -13 -20 4 -40 11 -13 20 -18 20 -11 0 7 5 9 10 6 8 -5 7
-12 -2 -23 -10 -12 -10 -14 0 -8 6 4 12 3 12 -1 0 -5 -6 -15 -12 -23 -7 -8 -3
-6 10 4 20 17 27 15 23 -6 0 -5 3 -8 9 -8 5 0 10 5 10 10 0 6 0 13 0 18 0 4
-4 8 -10 8 -5 1 -16 2 -22 3 -10 1 -10 3 0 10 11 7 11 9 -2 14 -9 4 -16 11
-16 17 0 6 7 4 16 -4 8 -9 20 -13 26 -10 7 4 8 2 4 -5 -4 -6 0 -14 8 -17 12
-5 15 -16 12 -42 -3 -31 -2 -34 9 -19 12 16 14 16 29 2 9 -9 16 -12 16 -6 0 6
7 11 15 11 8 0 15 -5 15 -11 0 -5 -4 -7 -10 -4 -5 3 -10 2 -10 -4 0 -20 19
-21 25 -1 3 11 10 20 15 20 6 0 6 -10 0 -25 -6 -16 -6 -27 2 -31 7 -4 8 -3 4
4 -4 7 -2 12 4 12 6 0 9 4 6 8 -3 5 1 9 9 9 8 0 15 -4 15 -9 0 -4 -4 -8 -9 -8
-5 0 -11 -9 -14 -21 -5 -19 -4 -19 11 -6 29 24 48 31 25 8 -13 -12 -23 -28
-23 -36 0 -9 -6 -12 -17 -9 -15 5 -15 4 -3 -4 17 -12 30 -7 30 13 0 8 5 17 11
21 8 5 10 -1 7 -18 -3 -16 0 -25 8 -25 9 0 12 10 10 28 -2 20 1 26 11 22 11
-4 11 -8 1 -21 -11 -13 -10 -15 4 -9 10 3 20 2 23 -4 4 -5 11 -6 17 -3 6 4 8
2 5 -3 -4 -6 0 -14 9 -17 8 -3 14 -11 13 -18 -4 -20 11 -58 22 -58 6 0 7 5 3
12 -5 7 -3 8 6 3 10 -6 9 -11 -5 -21 -22 -16 -36 -9 -28 13 5 12 3 14 -7 8 -9
-5 -11 -4 -6 4 4 6 2 19 -6 28 -9 12 -9 15 0 9 6 -4 12 -3 12 2 0 6 -7 12 -15
16 -17 6 -21 -19 -5 -29 6 -3 10 -11 10 -17 0 -6 -10 -3 -22 8 -23 19 -23 19
-5 -2 9 -11 14 -24 10 -29 -5 -4 -2 -5 5 -1 15 9 16 -6 1 -21 -7 -7 -6 -12 5
-16 11 -4 13 -1 9 11 -6 15 -4 15 10 4 9 -8 21 -11 27 -7 5 3 17 -1 26 -9 9
-9 20 -14 25 -11 5 4 9 1 9 -5 0 -7 -7 -9 -16 -6 -8 3 -12 2 -9 -3 3 -5 0 -13
-6 -17 -8 -5 -9 -3 -4 6 5 9 4 11 -3 6 -8 -4 -10 -2 -6 7 3 8 0 18 -7 23 -9 5
-10 2 -6 -9 5 -12 1 -17 -13 -17 -10 0 -21 -4 -24 -9 -3 -4 6 -6 21 -3 20 4
24 2 18 -9 -5 -8 -5 -11 -1 -7 11 9 57 -33 49 -45 -3 -6 -2 -7 4 -4 5 3 17 -3
26 -14 9 -10 13 -19 7 -19 -5 0 -12 5 -15 10 -4 6 -11 8 -16 4 -6 -4 -6 -10 0
-18 6 -7 7 -17 3 -22 -4 -4 0 -3 9 4 11 8 24 9 39 4 l24 -9 -22 -5 c-15 -4
-20 -2 -16 5 4 7 1 6 -7 -2 -11 -10 -11 -15 -1 -18 6 -3 10 -9 7 -14 -4 -5 1
-6 10 -2 13 5 14 7 3 14 -7 5 -8 9 -3 9 18 0 34 -22 28 -37 -5 -13 -2 -13 15
-4 28 15 31 14 27 -6 -1 -10 2 -24 8 -30 6 -9 6 -13 -2 -13 -6 0 -11 5 -11 11
0 5 -4 8 -9 4 -5 -3 -13 0 -17 6 -4 7 -3 9 4 5 6 -3 13 -2 17 4 3 5 2 10 -4
10 -18 0 -61 -23 -61 -33 0 -5 7 -4 15 3 9 7 19 9 23 5 4 -4 1 -10 -5 -12 -20
-7 -15 -19 9 -20 18 -2 20 0 8 7 -9 6 -10 10 -3 10 6 0 15 -5 18 -11 4 -6 14
-8 22 -5 8 4 11 1 8 -5 -4 -6 -13 -8 -21 -5 -10 4 -14 -3 -14 -27 0 -23 3 -28
9 -17 6 8 7 18 4 24 -3 5 -1 6 6 2 6 -4 8 -12 5 -18 -4 -6 0 -15 7 -20 11 -8
10 -9 -3 -4 -10 3 -18 1 -18 -5 0 -6 -5 -7 -12 -3 -6 4 -8 3 -4 -4 3 -6 16 -9
27 -7 17 3 19 2 9 -10 -7 -8 -10 -21 -7 -30 4 -8 2 -17 -2 -19 -5 -3 -7 -20
-5 -37 3 -26 1 -30 -14 -24 -13 5 -14 4 -5 -6 10 -10 17 -9 35 6 13 11 18 13
11 6 -8 -10 -9 -20 -2 -33 8 -15 5 -20 -17 -28 -15 -6 -24 -13 -21 -16 3 -3
14 -1 26 5 24 13 40 -4 21 -22 -10 -9 -11 -9 -6 1 4 6 2 12 -4 12 -7 0 -9 -7
-6 -15 21 -51 21 -51 4 -37 -13 10 -18 10 -24 1 -4 -7 -3 -9 3 -6 6 4 17 -1
24 -10 12 -15 12 -16 -5 -10 -16 6 -17 5 -6 -8 12 -15 4 -21 -23 -16 -5 1 -6
-3 -2 -8 10 -18 54 9 50 31 -2 11 0 16 7 12 6 -4 6 1 -1 14 -8 15 -8 23 1 28
6 4 8 3 5 -3 -3 -5 2 -23 12 -39 19 -32 17 -54 -5 -54 -8 0 -14 -5 -14 -11 0
-5 6 -7 13 -3 9 6 9 4 -1 -8 -11 -14 -10 -18 5 -27 10 -6 14 -11 10 -11 -4 0
-19 7 -33 16 -13 9 -27 14 -31 10 -3 -3 -1 -6 7 -6 10 0 10 -3 0 -15 -14 -17
-8 -31 9 -20 6 3 8 11 5 17 -5 7 -2 8 5 4 7 -5 10 -14 7 -21 -8 -22 6 -26 28
-8 21 18 21 18 3 -3 -9 -11 -14 -25 -10 -29 5 -5 1 -4 -9 3 -11 9 -18 10 -23
2 -3 -5 -1 -10 4 -10 6 0 11 -4 11 -10 0 -5 -7 -10 -16 -10 -8 0 -12 5 -9 10
3 6 1 10 -5 10 -7 0 -10 -6 -7 -14 3 -7 -2 -24 -10 -37 -11 -14 -12 -19 -3
-14 8 5 11 3 8 -6 -3 -8 -11 -13 -18 -11 -10 2 -10 -1 -4 -10 11 -15 12 -57 1
-75 -4 -6 -3 -14 3 -18 6 -4 8 -10 5 -15 -11 -17 14 -50 33 -43 11 4 10 0 -5
-11 -13 -10 -20 -23 -17 -31 6 -14 -6 -20 -29 -16 -5 1 -7 -4 -5 -11 3 -7 10
-13 16 -13 5 0 13 -2 16 -5 3 -4 -5 -6 -19 -6 -13 0 -22 3 -20 6 2 3 -5 6 -15
7 -23 2 -35 -13 -19 -23 8 -4 9 -3 5 4 -4 7 -3 12 2 12 5 0 10 -11 10 -25 0
-16 -6 -25 -17 -25 -14 0 -14 2 -1 10 9 6 10 10 3 10 -7 0 -16 -6 -20 -13 -4
-7 -19 -21 -33 -30 -13 -9 -19 -17 -13 -17 7 0 15 5 18 10 10 16 25 11 25 -8
0 -10 6 -24 13 -31 10 -11 8 -11 -10 0 -12 7 -19 18 -16 24 4 5 -3 2 -14 -8
-11 -9 -22 -16 -24 -15 -3 2 4 -5 15 -15 19 -18 19 -20 3 -31 -9 -7 -14 -15
-11 -18 3 -4 0 -9 -6 -13 -6 -4 -9 -1 -8 7 2 8 -5 12 -17 10 -11 -2 -25 -4
-31 -4 -18 -2 -12 -27 8 -34 23 -7 23 -15 -3 -42 -11 -12 -17 -27 -14 -32 4
-6 1 -9 -6 -8 -6 2 -14 -3 -17 -11 -3 -9 0 -11 8 -6 9 5 11 4 6 -4 -4 -6 -11
-9 -16 -6 -5 3 -14 -3 -19 -12 -9 -15 -10 -12 -6 13 3 20 1 31 -8 31 -8 0 -12
-14 -10 -41 1 -29 -1 -36 -7 -26 -5 8 -7 24 -5 35 3 11 2 14 -1 6 -5 -11 -8
-11 -15 0 -5 8 -7 2 -7 -19 1 -18 5 -29 11 -25 6 3 7 2 4 -4 -3 -5 -22 -8 -41
-7 -20 2 -36 -1 -36 -6 0 -5 -8 -6 -17 -3 -15 6 -16 5 -3 -9 13 -14 16 -14 26
0 9 13 12 13 20 1 16 -26 14 -40 -6 -29 -18 10 -46 -9 -35 -23 3 -4 2 -5 -2
-2 -12 9 -12 36 -1 29 7 -4 8 -2 4 4 -5 8 -14 9 -24 4 -9 -5 -30 -8 -45 -7
-15 1 -30 -2 -33 -7 -3 -5 0 -7 8 -6 8 2 12 -4 10 -16 -2 -11 1 -15 8 -11 6 4
9 12 7 19 -3 7 5 12 19 12 13 0 24 -4 24 -9 0 -5 -7 -7 -15 -3 -15 5 -19 -4
-16 -34 2 -13 1 -13 -8 0 -6 8 -11 11 -11 6 0 -5 -8 -2 -17 6 -30 25 -41 29
-49 17 -4 -7 -3 -9 2 -6 6 3 15 2 22 -2 16 -10 24 -51 10 -48 -6 1 -13 -4 -16
-12 -2 -8 0 -11 6 -7 6 3 13 2 16 -3 7 -10 -13 -9 -31 2 -6 4 -20 -4 -32 -20
-16 -21 -20 -23 -15 -8 l6 20 -18 -20 c-10 -12 -15 -14 -12 -5 8 21 -18 45
-26 24 -3 -8 -2 -13 2 -10 4 2 8 -4 8 -14 0 -14 -3 -16 -13 -8 -10 8 -13 7
-13 -3 0 -12 -2 -12 -9 0 -5 8 -16 11 -26 7 -16 -6 -16 -4 -4 11 10 14 10 16
0 6 -7 -6 -20 -9 -27 -6 -8 3 -14 0 -14 -7 0 -6 3 -9 8 -7 4 3 14 -2 22 -11
13 -14 12 -15 -5 -8 -23 9 -24 9 -47 7 -10 0 -18 -6 -18 -12 0 -6 9 -9 20 -6
12 3 18 1 14 -5 -3 -5 -17 -7 -30 -4 -14 4 -24 2 -24 -4 0 -5 -3 -9 -7 -9 -21
3 -33 -2 -27 -12 5 -8 1 -8 -14 0 -27 14 -35 14 -26 -1 4 -6 3 -8 -4 -4 -6 3
-18 -1 -26 -10 -21 -20 -21 -4 0 22 8 10 12 13 8 5 -5 -9 -3 -12 4 -7 16 10
15 27 0 25 -31 -4 -40 1 -33 19 5 14 4 15 -7 4 -11 -11 -10 -16 7 -28 19 -14
19 -15 -2 -20 -19 -5 -21 -10 -12 -28 9 -19 9 -20 -4 -3 -13 16 -15 16 -21 2
-4 -12 -10 -13 -25 -6 -10 6 -21 7 -25 4 -3 -3 -6 -1 -6 6 0 14 31 11 43 -4 5
-6 6 -2 3 8 -3 10 -2 16 3 13 5 -3 14 1 21 9 7 8 11 15 9 16 -31 6 -38 5 -36
-4 1 -6 -2 -12 -8 -12 -5 -1 -23 -5 -39 -10 -20 -5 -31 -4 -38 6 -7 10 -7 8
-3 -8 4 -14 2 -24 -4 -24 -36 -4 -45 -2 -48 11 -3 9 -1 11 4 5 11 -14 33 -17
33 -5 0 10 -21 14 -49 11 -8 -2 -10 3 -6 11 6 10 5 11 -6 1 -17 -17 -32 -17
-23 0 4 6 4 9 -1 5 -4 -4 -15 -2 -24 4 -9 7 -5 0 9 -16 16 -18 20 -26 10 -24
-8 2 -14 -2 -13 -9 1 -6 -5 -10 -15 -9 -9 2 -18 11 -19 22 -3 18 -2 18 5 1 7
-17 9 -17 21 -3 9 11 10 16 2 16 -6 0 -20 9 -31 20 -12 12 -20 15 -20 8 0 -9
-4 -8 -10 2 -7 11 -10 11 -10 2 0 -7 -5 -10 -10 -7 -7 4 -7 11 -2 18 5 7 9 20
9 29 0 14 -3 15 -14 7 -15 -13 -18 -23 -3 -14 6 3 10 2 10 -4 0 -15 -21 -25
-29 -12 -4 6 -17 9 -28 7 -16 -3 -20 -1 -16 10 3 8 0 14 -7 14 -6 0 -8 -4 -5
-10 3 -5 2 -10 -3 -10 -6 0 -8 -8 -5 -19 3 -10 0 -22 -5 -25 -6 -3 -8 2 -5 12
3 13 -1 19 -12 19 -9 0 -14 -6 -11 -13 3 -8 0 -11 -10 -7 -11 4 -12 9 -3 19
13 16 -2 19 -17 4 -5 -5 -15 -6 -22 -1 -10 6 -10 10 3 21 13 11 14 10 8 -6 -6
-17 -5 -17 10 -5 13 10 20 11 31 2 10 -9 15 -8 19 3 4 9 1 18 -5 22 -7 5 -8 2
-3 -6 6 -9 2 -10 -16 -4 -13 4 -32 7 -42 6 -11 0 -15 4 -11 11 4 7 4 9 -1 5
-4 -4 -14 -3 -22 3 -7 6 -13 8 -13 4 0 -4 -8 -1 -17 6 -17 13 -17 13 -3 -5 14
-18 13 -19 -3 -13 -10 4 -23 7 -28 7 -6 0 -8 4 -5 8 2 4 -7 8 -22 9 -24 2 -24
1 -7 -7 18 -8 18 -9 2 -9 -21 -1 -49 23 -39 33 3 4 -1 4 -11 0 -9 -3 -14 -11
-10 -17 3 -6 1 -7 -5 -3 -7 4 -12 2 -12 -5 0 -7 -3 -9 -6 -6 -4 4 -2 12 4 20
17 20 -2 39 -41 41 -23 1 -33 5 -30 14 5 13 -12 17 -20 5 -2 -5 -2 -3 -1 4 2
7 -6 15 -17 18 -10 4 -19 10 -19 16 0 5 14 0 32 -11 17 -10 36 -16 41 -13 6 4
7 1 2 -7 -5 -8 -4 -11 3 -6 6 3 13 2 17 -4 4 -6 10 -8 15 -5 5 3 16 -5 24 -17
9 -12 16 -17 16 -11 0 6 -7 18 -15 26 -8 9 -11 17 -7 20 4 2 2 2 -5 1 -7 -2
-15 1 -18 6 -3 5 -14 7 -25 5 -12 -2 -21 3 -26 17 -5 16 -8 18 -15 7 -6 -11
-13 -9 -33 10 -29 28 -26 43 3 17 14 -13 21 -14 27 -5 4 7 3 10 -3 6 -6 -4
-16 0 -23 9 -7 8 -20 12 -27 9 -8 -3 -21 1 -29 9 -7 8 -19 17 -26 19 -10 4
-10 7 1 15 8 6 9 12 3 16 -6 3 -13 -3 -17 -14 -3 -11 -11 -20 -16 -20 -13 0
-11 14 4 29 8 10 8 12 0 7 -6 -3 -16 2 -22 11 -8 15 -12 16 -23 4 -11 -12 -11
-13 1 -6 10 6 12 4 6 -5 -5 -8 -4 -11 3 -6 6 3 13 2 17 -4 4 -6 -4 -9 -19 -8
-13 1 -22 6 -20 10 3 4 1 8 -4 8 -6 0 -12 6 -15 14 -4 10 0 14 12 11 10 -2 24
1 32 6 12 8 12 10 -1 8 -33 -3 -50 2 -48 14 2 6 -4 10 -12 9 -8 -2 -12 -1 -8
3 4 4 1 14 -7 22 -8 8 -15 20 -14 26 0 8 2 8 6 -1 2 -6 10 -9 15 -6 7 5 8 2 3
-6 -5 -9 -4 -11 4 -6 7 4 10 2 9 -5 -5 -19 16 -21 37 -3 11 8 14 12 7 9 -7 -4
-31 5 -54 20 -22 15 -37 22 -34 16 4 -6 2 -11 -3 -11 -6 0 -11 7 -11 16 0 8
-5 12 -10 9 -6 -4 -8 -11 -5 -16 3 -5 -1 -6 -10 -3 -13 5 -12 9 6 25 24 21 34
24 24 9 -3 -5 -1 -10 4 -10 6 0 11 7 11 15 0 11 -7 14 -25 11 -14 -3 -23 -1
-20 4 3 5 -4 12 -16 15 -11 4 -18 13 -16 20 7 18 -12 35 -32 28 -11 -4 -10 -1
4 10 20 16 40 13 30 -4 -7 -11 -3 -11 20 -3 13 5 11 9 -11 20 -20 11 -30 11
-40 3 -8 -6 -15 -9 -15 -5 -5 24 -4 33 9 48 12 14 12 16 -3 14 -9 -1 -21 -9
-27 -17 -8 -11 -9 -10 -4 5 5 14 2 17 -11 12 -16 -5 -16 -4 -3 6 21 17 19 43
-3 42 -9 -1 -14 3 -11 8 3 5 12 7 20 4 14 -5 18 5 14 33 -1 9 4 12 17 7 15 -5
16 -4 3 7 -15 12 -22 30 -23 54 0 7 -6 14 -14 17 -10 4 -11 1 -4 -13 11 -19 5
-31 -13 -31 -6 0 -4 5 4 10 8 5 10 10 3 10 -15 0 -10 33 6 38 6 2 19 -2 28
-10 14 -11 16 -11 9 0 -5 8 -22 21 -40 29 -20 9 -23 12 -8 9 12 -2 20 0 16 5
-3 5 -1 9 4 9 5 0 9 7 9 15 0 8 -5 11 -10 8 -5 -3 -7 0 -5 8 3 8 11 13 18 11
11 -3 11 0 1 12 -7 8 -10 20 -6 25 3 6 0 8 -8 5 -10 -3 -14 -18 -12 -47 3 -40
3 -40 -10 -17 -7 13 -11 32 -10 42 2 10 0 20 -6 23 -12 8 -12 25 2 25 5 0 7
-5 3 -12 -5 -7 -3 -8 6 -3 9 6 11 4 5 -5 -5 -9 -4 -11 4 -6 9 6 9 11 1 21 -8
9 -8 15 0 20 6 4 9 14 8 23 -2 10 3 16 10 14 8 -1 11 2 7 8 -5 8 -11 7 -21 -1
-9 -7 -14 -8 -14 -1 0 6 5 14 10 17 6 3 10 12 10 18 0 8 -3 8 -9 -1 -4 -8 -12
-14 -17 -15 -5 -1 -7 -6 -5 -12 12 -33 8 -51 -13 -52 -11 -1 -15 1 -8 4 6 3
12 9 12 14 0 6 -4 7 -10 4 -5 -3 -10 -2 -10 4 0 5 5 11 12 13 6 2 8 10 4 17
-6 9 -11 8 -20 -5 -10 -13 -15 -14 -21 -4 -5 8 -4 11 2 7 6 -4 14 0 17 9 3 8
10 12 16 9 5 -3 10 1 10 10 0 8 -7 18 -16 22 -15 5 -15 7 0 15 14 8 15 12 4
26 -11 15 -11 15 3 5 9 -7 18 -11 20 -8 3 2 5 -6 5 -20 0 -13 -4 -21 -10 -18
-5 3 -6 1 -2 -5 7 -12 36 -5 36 8 0 5 -5 12 -11 16 -8 4 -3 12 12 21 23 13 23
14 2 8 -17 -5 -22 -3 -17 8 7 18 -12 32 -29 20 -7 -4 -3 1 10 12 23 21 32 42
13 30 -5 -3 -10 -1 -10 5 0 7 6 10 14 7 19 -8 28 29 10 44 -13 11 -17 8 -11
-8 1 -5 6 -7 10 -5 5 1 6 -2 2 -8 -5 -8 -11 -7 -21 1 -13 10 -12 14 1 29 8 9
12 20 8 25 -5 4 -3 5 4 1 7 -3 14 2 18 14 5 16 10 18 19 11 9 -8 13 -7 13 4 0
8 -4 12 -9 9 -4 -3 -8 -1 -8 5 0 5 6 12 13 14 9 4 9 6 0 6 -6 1 -18 -8 -26
-19 -13 -19 -15 -19 -21 -4 -4 10 0 25 10 35 9 10 13 22 10 28 -4 5 -2 12 3
15 4 3 9 17 9 31 0 13 -4 22 -9 20 -4 -3 -10 -1 -13 4 -4 5 2 8 11 6 10 -2 22
-4 27 -4 5 -1 3 -7 -3 -14 -8 -10 -7 -14 4 -14 8 0 12 4 9 9 -7 10 -1 10 31
-2 17 -7 24 -7 20 0 -3 6 -14 10 -23 10 -15 0 -15 2 -2 10 11 7 12 10 2 10 -8
0 -12 6 -9 13 2 6 0 22 -4 35 -6 15 -5 21 1 17 6 -3 10 -1 10 4 0 6 5 11 11
11 8 0 8 -5 -1 -15 -9 -11 -10 -18 -1 -28 6 -8 9 -17 6 -20 -3 -4 -2 -4 2 -1
4 3 8 19 9 35 1 16 9 37 18 47 9 10 14 21 11 24 -11 11 18 59 32 54 8 -4 11
-1 8 5 -4 6 -13 8 -21 5 -8 -3 -13 -2 -13 2 1 4 0 9 -1 12 -8 21 -6 37 6 37 7
0 11 -4 8 -9 -3 -4 -1 -8 5 -8 5 0 13 9 16 20 3 11 14 20 23 20 15 1 14 3 -2
15 -11 8 -14 15 -7 15 7 0 10 4 6 9 -3 5 0 13 6 17 7 4 9 3 5 -4 -9 -15 30
-25 51 -12 16 10 15 10 -4 5 -23 -6 -28 1 -24 34 2 7 -2 10 -8 6 -7 -4 -8 0
-4 10 3 9 9 12 12 7 3 -5 14 -8 24 -6 9 1 15 -2 11 -7 -3 -5 -10 -6 -16 -3 -7
4 -8 2 -4 -4 4 -7 1 -12 -6 -13 -11 0 -11 -2 0 -6 16 -6 42 26 35 44 -3 7 -10
10 -16 6 -6 -4 -7 -1 -2 6 5 9 11 9 17 3 6 -6 18 -8 27 -4 14 5 14 4 1 -14
-14 -18 -14 -18 6 -1 23 19 39 23 28 5 -4 -7 -3 -8 4 -4 6 4 9 13 5 22 -4 11
-9 12 -19 3 -11 -9 -14 -8 -14 1 0 9 -3 10 -14 1 -10 -9 -15 -8 -19 3 -4 9 -1
18 5 22 6 4 8 3 5 -3 -4 -6 4 -10 18 -10 21 0 23 2 14 13 -7 8 -9 17 -5 21 3
3 6 2 6 -4 0 -6 12 -18 26 -28 15 -9 24 -12 20 -7 -4 6 1 15 10 20 12 7 14 14
7 27 -7 12 -13 14 -17 6 -4 -6 -2 -11 4 -11 6 0 8 -5 5 -10 -4 -6 -11 -7 -17
-4 -7 5 -8 2 -3 -6 5 -9 4 -11 -3 -6 -8 5 -9 13 -3 24 4 9 7 23 5 30 -1 7 0 8
3 2 3 -7 10 -4 18 7 13 17 13 17 12 -2 -1 -11 3 -19 11 -17 6 1 12 -2 12 -8 0
-5 5 -10 11 -10 8 0 9 4 0 13 -6 8 -7 18 -3 23 4 4 -2 2 -13 -6 -18 -14 -19
-14 -7 2 15 19 7 42 -10 32 -7 -4 -8 -2 -4 5 6 9 11 9 23 0 11 -10 16 -10 22
0 6 10 10 9 14 -4 5 -10 3 -14 -5 -9 -7 5 -8 3 -3 -6 5 -9 4 -11 -3 -6 -8 5
-10 1 -5 -9 5 -13 7 -14 14 -3 7 10 9 9 9 -4 0 -9 4 -20 10 -23 6 -4 7 2 2 17
-13 37 -9 74 8 69 28 -7 53 -2 69 14 13 13 14 19 3 36 -8 12 -9 18 -4 15 6 -3
13 -1 15 4 3 6 4 5 3 -2 -2 -7 1 -21 5 -30 6 -10 5 -19 -1 -23 -13 -8 -13 -25
1 -25 5 0 8 4 4 9 -3 5 -1 12 4 15 5 3 7 15 4 26 -4 16 -2 19 11 14 12 -4 15
-2 10 9 -3 8 0 18 7 23 8 4 10 3 5 -4 -4 -7 -1 -12 9 -12 9 0 14 4 11 9 -3 5
1 14 9 21 8 7 15 9 15 4 0 -5 4 -3 9 4 7 11 9 11 14 -2 8 -19 -12 -33 -23 -16
-5 9 -9 9 -14 1 -4 -6 -1 -11 6 -12 10 0 10 -2 1 -6 -15 -6 -17 -33 -3 -33 6
0 9 6 8 13 -2 6 4 12 12 12 8 0 14 -6 12 -13 -1 -8 2 -11 9 -7 7 5 7 11 1 17
-7 7 -6 18 4 34 9 13 15 25 15 28 -4 23 1 25 17 6 11 -14 23 -19 35 -15 9 4
15 11 12 16 -3 4 -12 6 -20 2 -8 -3 -15 -1 -15 5 0 8 28 9 38 2 1 -2 6 -3 11
-4 17 -2 22 -14 10 -22 -8 -5 -10 -3 -4 6 5 8 4 11 -3 6 -6 -4 -8 -14 -5 -22
4 -12 8 -12 13 -4 4 7 13 9 19 6 8 -5 8 0 1 18 -6 18 -6 27 3 33 19 12 61 12
76 -1 11 -9 13 -6 8 14 -4 14 -4 19 -1 13 3 -7 10 -13 15 -13 6 0 7 5 4 10 -3
6 -1 10 5 10 7 0 9 -7 6 -15 -3 -9 1 -18 9 -21 8 -4 12 -11 8 -18 -3 -6 -2 -7
2 -3 11 10 16 39 6 32 -4 -2 -8 2 -8 10 0 11 4 12 14 3 10 -8 18 -7 31 6 15
13 21 13 33 3 8 -6 12 -11 10 -10 -2 2 -10 -2 -17 -7 -6 -6 -17 -9 -24 -8 -7
2 -14 -7 -15 -20 l-2 -22 19 20 c11 11 23 18 27 15 13 -7 34 22 25 36 -4 8 -3
9 5 5 6 -4 9 -16 6 -26 -5 -16 -1 -18 22 -16 15 2 29 9 31 17 3 11 1 10 -7 -1
-8 -11 -11 -12 -11 -2 0 7 -4 10 -10 7 -5 -3 -10 -1 -10 5 0 7 6 10 14 7 17
-7 39 16 28 28 -4 5 -2 5 5 1 6 -3 10 -15 8 -26z m-150 2 c-3 -3 -11 0 -18 7
-9 10 -8 11 6 5 10 -3 15 -9 12 -12z m-1618 -6 c-3 -8 1 -17 10 -20 11 -4 14
-2 10 9 -4 8 -2 17 4 20 5 4 9 3 8 -2 -3 -17 1 -36 6 -31 3 3 24 -13 45 -35
38 -38 39 -41 24 -59 -11 -12 -13 -18 -5 -18 7 0 10 -4 6 -9 -3 -5 0 -13 6
-17 8 -5 9 -3 4 7 -5 8 -5 11 0 7 4 -4 13 -3 20 2 8 7 12 5 12 -5 0 -8 -3 -12
-6 -10 -8 4 -30 -14 -56 -44 -12 -15 -14 -21 -5 -16 8 5 24 11 35 12 17 3 18
1 5 -8 -12 -9 -11 -10 8 -6 12 3 20 1 16 -4 -3 -5 -12 -9 -20 -9 -8 0 -14 -5
-14 -11 0 -5 5 -7 12 -3 7 4 8 3 4 -4 -4 -6 -13 -9 -22 -5 -11 4 -12 9 -3 19
8 10 8 14 0 14 -6 0 -11 -5 -11 -11 0 -5 -4 -8 -8 -5 -5 3 -8 -8 -8 -25 0 -29
9 -38 21 -19 3 6 1 10 -4 10 -6 0 -11 5 -11 12 0 8 7 5 18 -5 16 -17 16 -19
-1 -28 -9 -6 -15 -14 -12 -20 4 -5 3 -9 0 -9 -3 0 -12 15 -20 33 -9 21 -14 26
-15 13 0 -16 -2 -17 -17 -5 -14 12 -16 12 -8 0 6 -11 4 -13 -8 -8 -10 4 -14 2
-11 -7 3 -7 11 -13 19 -13 8 0 12 3 10 7 -2 4 2 7 9 7 12 0 13 -6 7 -36 -1 -2
-7 2 -15 8 -10 8 -16 9 -21 1 -3 -5 -1 -10 4 -10 6 0 11 -5 11 -12 0 -6 -8 -4
-19 6 -17 16 -19 16 -25 0 -4 -9 -9 -14 -13 -11 -8 9 17 38 28 31 16 -9 10 3
-8 17 -11 10 -14 10 -9 2 4 -7 3 -13 -1 -13 -5 0 -15 6 -22 13 -11 10 -13 9
-7 -1 5 -8 0 -11 -15 -9 -13 2 -26 12 -31 23 -7 16 -8 16 -4 -3 2 -13 0 -23
-5 -23 -4 0 -7 -6 -5 -12 1 -7 1 -10 -1 -5 -3 4 -10 4 -16 1 -8 -5 -8 -2 1 7
16 17 16 37 0 21 -10 -10 -15 -8 -23 9 -11 19 -13 20 -28 4 -10 -9 -17 -12
-17 -6 0 6 9 15 20 21 11 6 20 20 20 31 0 13 4 18 12 13 7 -4 8 -3 4 4 -9 15
-46 -3 -46 -21 0 -7 4 -6 10 3 6 9 10 10 10 3 0 -14 -39 -38 -48 -29 -3 3 0 6
6 6 7 0 12 9 12 21 0 11 -4 18 -8 15 -4 -2 -9 4 -9 15 -2 21 12 26 23 7 5 -7
3 -8 -6 -3 -8 5 -11 4 -6 -3 4 -6 14 -8 22 -5 11 4 12 8 4 13 -16 10 -17 15
-2 32 10 13 10 17 -1 21 -10 4 -13 -2 -11 -19 2 -21 0 -22 -17 -14 -23 13 -25
22 -4 14 8 -4 15 -1 15 5 0 6 -4 11 -10 11 -5 0 -10 5 -10 11 0 5 5 7 10 4 6
-3 10 3 10 13 0 11 7 25 16 33 14 12 14 14 0 25 -14 10 -13 12 9 12 14 0 25
-5 25 -10 0 -5 -6 -6 -12 -2 -7 4 -10 4 -6 -1 4 -4 1 -17 -7 -29 -19 -26 -19
-32 3 -41 13 -5 14 -4 5 6 -9 9 -8 18 8 40 11 16 25 26 32 24 7 -3 20 6 30 20
17 23 16 24 -3 20 -11 -2 -20 0 -20 5 0 14 25 18 43 6 12 -10 14 -15 5 -24 -7
-7 -8 -12 -2 -12 5 0 15 9 22 21 8 12 9 18 4 15 -5 -3 -16 2 -23 12 -13 15
-12 16 3 4 11 -9 18 -10 23 -2 3 6 11 8 16 5 5 -4 9 -1 9 4 0 6 3 11 6 11 3 0
4 -6 1 -14z m-122 -6 c3 -6 -1 -7 -9 -4 -18 7 -21 14 -7 14 6 0 13 -4 16 -10z
m2015 -23 c0 -5 -4 -5 -10 -2 -5 3 -10 14 -10 23 0 15 2 15 10 2 5 -8 10 -19
10 -23z m224 25 c3 -5 -1 -9 -9 -9 -8 0 -12 4 -9 9 3 4 7 8 9 8 2 0 6 -4 9 -8z
m-2239 -30 c-3 -3 -11 0 -18 7 -9 10 -8 11 6 5 10 -3 15 -9 12 -12z m229 9
c-9 -9 -34 -9 -34 -1 0 5 9 8 20 7 10 -1 17 -3 14 -6z m1977 -19 c-7 -2 -18 1
-23 6 -8 8 -4 9 13 5 13 -4 18 -8 10 -11z m-2181 -7 c-7 -8 -17 -12 -23 -8 -6
4 -3 9 9 14 27 11 28 11 14 -6z m2227 -2 c0 -9 -4 -10 -14 -2 -7 6 -13 12 -13
14 0 1 6 2 13 2 8 0 14 -6 14 -14z m-2307 -27 c0 -2 -8 -10 -17 -17 -16 -13
-17 -12 -4 4 13 16 21 21 21 13z m1404 -4 c3 -5 -1 -9 -9 -9 -8 0 -12 4 -9 9
3 4 7 8 9 8 2 0 6 -4 9 -8z m890 0 c2 -4 -4 -8 -15 -8 -10 0 -19 4 -19 8 0 4
6 8 14 8 8 0 17 -4 20 -8z m31 -2 c-8 -14 28 -13 42 1 8 8 13 7 18 -2 5 -7 4
-10 -3 -5 -6 3 -14 1 -19 -6 -10 -15 -35 -17 -45 -3 -11 14 -10 25 3 25 5 0 7
-4 4 -10z m136 -27 c13 -17 13 -17 -6 -3 -11 8 -22 16 -24 17 -2 2 0 3 6 3 6
0 17 -8 24 -17z m1903 1 c3 -8 2 -12 -4 -9 -6 3 -10 10 -10 16 0 14 7 11 14
-7z m-4930 -15 c-3 -5 -10 -7 -15 -3 -5 3 -7 10 -3 15 3 5 10 7 15 3 5 -3 7
-10 3 -15z m876 1 c0 -5 -5 -10 -11 -10 -5 0 -7 5 -4 10 3 6 8 10 11 10 2 0 4
-4 4 -10z m-880 -24 c0 -2 -8 -10 -17 -17 -16 -13 -17 -12 -4 4 13 16 21 21
21 13z m4990 -27 c15 -28 5 -23 -15 7 -9 15 -12 23 -6 20 6 -4 16 -16 21 -27z
m21 8 c-10 -9 -11 -8 -5 6 3 10 9 15 12 12 3 -3 0 -11 -7 -18z m-3081 9 c0 -3
-4 -8 -10 -11 -5 -3 -10 -1 -10 4 0 6 5 11 10 11 6 0 10 -2 10 -4z m-1031 -20
c-2 -2 -15 -9 -29 -15 -24 -11 -24 -11 -6 3 16 13 49 24 35 12z m2216 -16 c-3
-5 0 -12 6 -16 6 -3 15 0 20 7 5 8 9 9 9 3 0 -6 -7 -17 -15 -24 -9 -8 -15 -9
-15 -2 0 6 -10 9 -21 7 -20 -4 -20 -3 -5 14 9 10 13 21 9 26 -5 4 -2 5 5 1 7
-4 10 -11 7 -16z m100 -38 c-3 -3 -11 0 -18 7 -9 10 -8 11 6 5 10 -3 15 -9 12
-12z m-2617 -87 c-3 -3 -9 2 -12 12 -6 14 -5 15 5 6 7 -7 10 -15 7 -18z m1036
16 c3 -5 -2 -15 -12 -22 -15 -12 -16 -12 -5 2 7 9 10 19 6 22 -3 4 -4 7 0 7 3
0 8 -4 11 -9z m-926 -19 c15 12 16 11 3 -4 -14 -19 -32 -15 -30 5 0 8 2 8 6
-1 4 -10 8 -10 21 0z m2723 -199 c13 -16 12 -17 -3 -4 -12 9 -18 10 -18 2 0
-6 7 -14 15 -17 8 -4 15 -11 15 -17 0 -6 -11 0 -25 13 -19 18 -22 26 -13 32 7
4 14 8 14 8 1 0 8 -8 15 -17z m-1916 -14 c-5 -15 -4 -19 5 -14 9 6 9 3 1 -14
-7 -12 -9 -26 -6 -31 6 -9 -11 -23 -32 -26 -7 -1 -15 2 -18 6 -3 5 4 7 15 5
23 -4 28 22 8 45 -11 12 -10 12 4 1 16 -12 17 -10 13 18 -2 17 1 31 6 31 6 0
7 -9 4 -21z m-31 -47 c3 -5 -1 -9 -9 -9 -8 0 -12 4 -9 9 3 4 7 8 9 8 2 0 6 -4
9 -8z m-47 -27 c0 -8 -4 -12 -9 -9 -5 3 -6 10 -3 15 9 13 12 11 12 -6z m-22
-43 c-3 -3 -11 0 -18 7 -9 10 -8 11 6 5 10 -3 15 -9 12 -12z m36 -37 c3 2 5
-5 5 -15 0 -24 -5 -24 -30 -5 -11 8 -14 15 -7 15 7 0 9 5 5 13 -6 9 -5 9 8 0
8 -7 17 -11 19 -8z m-51 -75 c0 -5 -5 -10 -11 -10 -5 0 -7 5 -4 10 3 6 8 10
11 10 2 0 4 -4 4 -10z m2195 -220 c3 -5 1 -10 -4 -10 -6 0 -11 5 -11 10 0 6 2
10 4 10 3 0 8 -4 11 -10z m-2215 -60 c0 -5 -5 -10 -11 -10 -5 0 -7 5 -4 10 3
6 8 10 11 10 2 0 4 -4 4 -10z m2261 -37 c13 -16 12 -17 -3 -4 -17 13 -22 21
-14 21 2 0 10 -8 17 -17z m-2301 -38 c0 -2 -10 -10 -22 -16 -21 -11 -22 -11
-9 4 13 16 31 23 31 12z m2291 -38 c-10 -9 -11 -8 -5 6 3 10 9 15 12 12 3 -3
0 -11 -7 -18z m-1 -21 c0 -2 -7 -7 -16 -10 -8 -3 -12 -2 -9 4 6 10 25 14 25 6z
m5 -106 c3 -5 1 -10 -4 -10 -6 0 -11 5 -11 10 0 6 2 10 4 10 3 0 8 -4 11 -10z
m-64 -29 c-7 -5 -10 -14 -7 -20 4 -6 12 -8 18 -5 7 4 8 2 4 -4 -5 -9 -12 -9
-26 0 -14 9 -16 16 -8 25 6 7 16 13 22 13 6 0 5 -4 -3 -9z m-2196 -11 c3 -5 1
-10 -4 -10 -6 0 -11 5 -11 10 0 6 2 10 4 10 3 0 8 -4 11 -10z m2185 -45 c0 -8
-4 -15 -9 -15 -10 0 -9 -26 2 -36 11 -11 8 -26 -3 -19 -5 3 -10 1 -10 -4 0 -6
5 -11 10 -11 6 0 10 -5 10 -10 0 -6 -8 -5 -19 2 -12 7 -17 16 -12 23 5 5 8 24
6 40 -1 17 0 33 2 38 7 13 23 8 23 -8z m-2145 -95 c0 -16 -3 -30 -7 -30 -5 0
-8 7 -8 16 0 8 -4 13 -8 10 -5 -3 -9 1 -9 9 0 8 4 12 8 9 4 -2 10 0 14 6 9 15
11 13 10 -20z m2140 -39 c-6 -5 -25 10 -25 20 0 5 6 4 14 -3 8 -7 12 -15 11
-17z m-38 -127 c-3 -3 -12 -4 -19 -1 -8 3 -5 6 6 6 11 1 17 -2 13 -5z m-47
-40 c0 -8 -19 -13 -24 -6 -3 5 1 9 9 9 8 0 15 -2 15 -3z m-1975 -43 c3 -5 2
-12 -3 -15 -5 -3 -9 1 -9 9 0 17 3 19 12 6z m1936 -18 c12 -16 12 -17 -2 -6
-9 7 -20 9 -24 5 -5 -4 -5 -1 -1 6 9 16 11 15 27 -5z m-1877 -69 c3 -8 2 -12
-4 -9 -6 3 -10 10 -10 16 0 14 7 11 14 -7z m1811 6 c-3 -6 4 -14 17 -19 16 -7
18 -10 6 -10 -9 -1 -20 4 -23 9 -4 6 -11 8 -16 5 -5 -4 -9 -2 -9 4 0 5 6 12
13 14 18 8 19 8 12 -3z m-1610 -185 c29 -25 29 -26 3 -9 -22 13 -28 14 -29 3
0 -11 -2 -11 -6 -1 -2 6 -10 9 -16 5 -7 -4 -6 1 2 10 11 14 11 17 0 18 -8 1
-18 1 -22 0 -5 -1 -6 3 -2 9 7 12 27 2 70 -35z m1463 -30 c-3 -3 -9 2 -12 12
-6 14 -5 15 5 6 7 -7 10 -15 7 -18z m-1448 -17 c0 -5 -7 -3 -15 6 -8 8 -15 18
-15 22 0 3 7 1 15 -6 8 -7 15 -17 15 -22z m1410 -18 c0 -5 -2 -10 -4 -10 -3 0
-8 5 -11 10 -3 6 -1 10 4 10 6 0 11 -4 11 -10z m-100 -54 c0 -3 -4 -8 -10 -11
-5 -3 -10 -1 -10 4 0 6 5 11 10 11 6 0 10 -2 10 -4z m-1127 -40 c6 -15 -17
-16 -30 -1 -4 4 -2 5 5 1 6 -4 12 -2 12 3 0 15 7 14 13 -3z m79 -11 c3 0 10
-4 15 -9 4 -5 3 -6 -4 -2 -6 3 -14 2 -18 -4 -3 -5 -12 -10 -18 -10 -7 0 -6 4
3 10 10 6 11 10 3 10 -7 0 -13 5 -13 11 0 6 5 7 13 2 6 -4 15 -8 19 -8z m61
-23 c-4 -10 -8 -12 -11 -4 -2 7 -7 10 -12 7 -7 -4 -7 3 -1 34 1 2 7 -2 15 -9
8 -6 12 -19 9 -28z m177 -32 c14 -8 28 -14 31 -13 3 1 6 -4 6 -12 0 -7 -6 -11
-14 -8 -7 3 -13 9 -13 14 0 5 -5 9 -10 9 -7 0 -7 -6 -1 -18 7 -14 6 -19 -3
-19 -8 0 -12 10 -10 24 3 31 -7 35 -31 10 -16 -16 -17 -19 -3 -14 12 4 15 2
11 -9 -4 -11 -9 -12 -19 -3 -8 6 -11 16 -7 23 4 6 8 14 9 19 1 4 2 9 3 11 2 7
25 1 51 -14z m63 -35 c-7 -21 -13 -19 -13 6 0 11 4 18 10 14 5 -3 7 -12 3 -20z
m92 -5 c3 -5 1 -10 -4 -10 -6 0 -11 5 -11 10 0 6 2 10 4 10 3 0 8 -4 11 -10z
m106 -17 c13 -16 12 -17 -3 -4 -10 7 -18 15 -18 17 0 8 8 3 21 -13z m-16 -12
c3 -5 2 -12 -3 -15 -5 -3 -9 1 -9 9 0 17 3 19 12 6z m-2541 -89 c3 -5 -1 -9
-9 -9 -8 0 -12 4 -9 9 3 4 7 8 9 8 2 0 6 -4 9 -8z m5040 -37 c-4 -8 -10 -15
-16 -15 -5 0 -6 -6 -2 -12 4 -7 3 -9 -1 -5 -12 10 -16 39 -5 32 5 -3 11 -1 15
5 9 15 15 12 9 -5z m-5014 -10 c0 -2 -9 -9 -19 -15 -14 -7 -22 -7 -27 2 -4 6
-3 8 2 5 6 -3 16 -2 24 4 17 10 20 11 20 4z m4944 -33 c3 -5 -1 -9 -9 -9 -8 0
-12 4 -9 9 3 4 7 8 9 8 2 0 6 -4 9 -8z m-4909 -11 c3 -5 2 -12 -3 -15 -5 -3
-9 1 -9 9 0 17 3 19 12 6z m4936 -28 c12 -16 12 -17 -2 -5 -9 7 -25 10 -35 6
-16 -5 -16 -4 -4 5 20 15 25 14 41 -6z m-38 -80 c-15 -23 -33 -23 -33 0 0 7 4
6 11 -3 9 -12 10 -11 6 5 -3 15 1 21 13 21 16 0 16 -2 3 -23z m-38 -23 c3 -5
1 -10 -4 -10 -6 0 -11 5 -11 10 0 6 2 10 4 10 3 0 8 -4 11 -10z m-45 -14 c0
-2 -8 -10 -17 -17 -16 -13 -17 -12 -4 4 13 16 21 21 21 13z m50 -32 c0 -8 -19
-13 -24 -6 -3 5 1 9 9 9 8 0 15 -2 15 -3z m-123 -59 c0 -8 -4 -12 -9 -9 -5 3
-6 10 -3 15 9 13 12 11 12 -6z m-44 -86 c-6 -6 -15 -3 -24 8 -13 17 -13 17 5
3 18 -14 18 -13 12 10 -6 22 -5 23 5 7 7 -12 8 -22 2 -28z m-4493 10 c0 -5 -5
-9 -12 -9 -6 0 -3 -7 8 -15 10 -8 14 -15 7 -15 -14 0 -27 18 -28 41 -1 10 4
15 12 12 7 -3 13 -9 13 -14z m137 -24 c0 -8 -4 -12 -9 -9 -5 3 -6 10 -3 15 9
13 12 11 12 -6z m4213 5 c-8 -5 -19 -10 -25 -10 -5 0 -3 5 5 10 8 5 20 10 25
10 6 0 3 -5 -5 -10z m-4184 -55 c-15 -11 -16 -15 -5 -15 8 0 21 6 29 13 8 6 6
2 -4 -10 -15 -18 -22 -21 -33 -11 -13 10 -12 14 3 25 10 7 20 13 23 13 3 0 -3
-7 -13 -15z m138 -31 c3 -8 2 -12 -4 -9 -6 3 -10 10 -10 16 0 14 7 11 14 -7z
m1937 7 c6 9 9 10 9 2 0 -7 -10 -18 -22 -24 -13 -6 -20 -8 -16 -4 4 5 2 15 -5
24 -11 14 -10 14 6 2 16 -13 20 -13 28 0z m115 -19 c-17 -16 -18 -16 -5 5 7
12 15 20 18 17 3 -2 -3 -12 -13 -22z m624 13 c-7 -9 -15 -13 -19 -10 -3 3 1
10 9 15 21 14 24 12 10 -5z m120 0 c-7 -9 -15 -13 -19 -10 -3 3 1 10 9 15 21
14 24 12 10 -5z m120 0 c-7 -9 -15 -13 -19 -10 -3 3 1 10 9 15 21 14 24 12 10
-5z m120 0 c-7 -9 -15 -13 -19 -10 -3 3 1 10 9 15 21 14 24 12 10 -5z m-2906
-10 c-4 -8 -8 -15 -10 -15 -2 0 -4 7 -4 15 0 8 4 15 10 15 5 0 7 -7 4 -15z
m1846 11 c0 -2 -7 -9 -15 -16 -13 -11 -14 -10 -9 4 5 14 24 23 24 12z"/>
<path d="M1729 4273 c-13 -16 -12 -17 4 -4 9 7 17 15 17 17 0 8 -8 3 -21 -13z"/>
<path d="M3690 3986 c0 -2 8 -10 18 -17 15 -13 16 -12 3 4 -13 16 -21 21 -21
13z"/>
<path d="M4800 3730 c-9 -6 -10 -10 -3 -10 6 0 15 5 18 10 8 12 4 12 -15 0z"/>
<path d="M2475 3520 c-3 -5 -1 -10 4 -10 6 0 11 5 11 10 0 6 -2 10 -4 10 -3 0
-8 -4 -11 -10z"/>
<path d="M2297 3493 c-10 -16 3 -22 41 -21 36 1 39 20 4 23 -11 1 -19 -2 -16
-7 3 -4 1 -8 -5 -8 -5 0 -11 5 -13 12 -3 9 -6 9 -11 1z"/>
<path d="M2387 3493 c-13 -12 -7 -23 11 -22 10 0 12 3 4 6 -6 2 -10 9 -6 14 6
10 0 12 -9 2z"/>
<path d="M2816 3474 c-8 -20 0 -32 14 -18 5 5 5 15 1 22 -6 11 -10 10 -15 -4z"/>
<path d="M2183 3458 c0 -7 -4 -20 -7 -28 -5 -11 0 -16 14 -17 11 -1 20 4 20
10 0 7 4 6 10 -3 5 -8 10 -10 10 -4 0 16 -47 57 -47 42z m22 -17 c3 -5 1 -12
-5 -16 -5 -3 -10 1 -10 9 0 18 6 21 15 7z"/>
<path d="M2858 3459 c-20 -11 -24 -29 -7 -29 5 0 7 5 3 11 -4 7 -1 10 7 7 8
-3 13 -14 11 -24 -2 -15 -1 -16 7 -4 5 8 7 18 5 22 -3 4 0 8 6 8 6 0 8 5 5 10
-8 12 -15 12 -37 -1z"/>
<path d="M2311 3457 c2 -2 11 -8 20 -15 12 -9 16 -9 16 1 0 7 -9 14 -20 14
-11 1 -18 1 -16 0z"/>
<path d="M2240 3430 c6 -11 13 -20 16 -20 2 0 0 9 -6 20 -6 11 -13 20 -16 20
-2 0 0 -9 6 -20z"/>
<path d="M2375 3440 c-3 -5 -1 -10 4 -10 6 0 11 5 11 10 0 6 -2 10 -4 10 -3 0
-8 -4 -11 -10z"/>
<path d="M2690 3439 c0 -5 5 -7 10 -4 6 3 10 8 10 11 0 2 -4 4 -10 4 -5 0 -10
-5 -10 -11z"/>
<path d="M2770 3438 c0 -6 3 -8 7 -5 3 4 12 2 20 -4 8 -7 13 -8 13 -1 0 5 -7
13 -16 16 -22 8 -24 8 -24 -6z"/>
<path d="M2313 3425 c0 -8 4 -12 9 -9 5 3 6 10 3 15 -9 13 -12 11 -12 -6z"/>
<path d="M2275 3420 c-3 -5 -1 -10 4 -10 6 0 11 5 11 10 0 6 -2 10 -4 10 -3 0
-8 -4 -11 -10z"/>
<path d="M2897 3409 c7 -7 15 -10 18 -7 3 3 -2 9 -12 12 -14 6 -15 5 -6 -5z"/>
<path d="M2950 3400 c0 -5 5 -10 11 -10 5 0 7 5 4 10 -3 6 -8 10 -11 10 -2 0
-4 -4 -4 -10z"/>
<path d="M3030 3380 c0 -5 5 -10 11 -10 5 0 7 5 4 10 -3 6 -8 10 -11 10 -2 0
-4 -4 -4 -10z"/>
<path d="M1940 3327 c0 -17 20 -46 20 -29 0 7 5 10 10 7 6 -4 7 -11 4 -17 -4
-7 -2 -8 4 -4 9 5 8 12 0 26 -15 24 -38 34 -38 17z"/>
<path d="M1980 3324 c0 -1 8 -8 17 -15 9 -8 14 -9 10 -2 -4 6 -1 13 5 16 7 3
3 4 -9 4 -13 -1 -23 -2 -23 -3z"/>
<path d="M3253 3209 c-2 -23 3 -25 10 -4 4 8 3 16 -1 19 -4 3 -9 -4 -9 -15z"/>
<path d="M2379 3215 c-1 -3 -2 -10 -3 -16 0 -6 -8 -16 -16 -22 -17 -14 -24
-37 -11 -37 5 0 11 8 13 18 3 14 5 14 10 -4 4 -18 1 -21 -21 -20 -14 1 -31 5
-38 9 -6 4 -14 3 -17 -2 -4 -5 0 -11 6 -14 8 -2 9 -8 4 -13 -5 -5 -11 -4 -13
4 -3 6 -11 12 -18 12 -18 0 -24 -21 -13 -45 9 -20 9 -20 -6 -1 -9 11 -16 16
-16 11 0 -4 -10 0 -21 11 -22 19 -22 19 -11 -2 10 -19 9 -21 -16 -16 -15 2
-32 8 -37 13 -7 5 -11 1 -11 -11 0 -13 6 -17 23 -14 12 2 24 0 27 -5 3 -4 -6
-7 -20 -5 -20 2 -24 -1 -19 -14 5 -13 2 -12 -15 3 -18 16 -23 17 -30 5 -19
-30 -4 -60 23 -43 16 10 41 14 32 5 -4 -4 -12 -7 -18 -7 -7 -1 -11 -5 -10 -10
1 -6 -10 -11 -24 -12 -19 -1 -22 1 -12 8 9 5 10 9 2 9 -24 0 -42 -12 -36 -26
3 -8 10 -11 16 -7 6 3 7 1 3 -6 -6 -9 -12 -9 -24 1 -10 7 -18 13 -20 14 -2 1
4 9 13 17 9 10 11 18 5 22 -5 3 -10 1 -10 -5 0 -6 -4 -8 -10 -5 -5 3 -7 0 -4
-8 7 -18 -21 -41 -38 -31 -9 5 -8 2 2 -10 8 -11 16 -14 18 -7 2 6 9 8 14 5 7
-5 8 -2 3 6 -6 9 -4 11 5 5 10 -6 10 -11 -3 -20 -9 -7 -13 -16 -9 -20 4 -4 -6
1 -23 11 -16 10 -26 13 -21 6 7 -12 -31 -34 -46 -25 -5 2 -8 0 -8 -5 0 -15 49
-9 55 6 6 15 25 7 25 -11 0 -7 -4 -6 -10 3 -8 13 -10 12 -11 -5 -1 -11 -1 -24
0 -30 1 -5 -5 -2 -12 8 -19 23 -22 22 -23 -8 -1 -14 1 -23 5 -21 4 3 7 -4 8
-14 1 -11 -2 -22 -8 -25 -5 -3 -6 1 -3 9 4 10 -1 18 -10 22 -12 5 -14 10 -6
19 8 9 8 15 0 20 -9 6 -14 -1 -11 -17 0 -5 -3 -8 -8 -8 -5 0 -8 -12 -8 -26 0
-17 2 -22 8 -13 4 7 5 17 2 23 -3 5 -1 6 5 2 17 -10 -5 -49 -23 -42 -8 3 -17
0 -21 -6 -4 -6 -3 -8 4 -4 6 3 14 2 17 -4 5 -8 11 -8 20 0 10 8 15 8 21 -1 4
-7 3 -9 -4 -5 -6 3 -13 2 -16 -3 -3 -5 -15 -7 -26 -4 -11 3 -28 2 -37 -2 -10
-5 -25 -7 -33 -6 -11 1 -10 -2 3 -10 14 -8 16 -14 6 -25 -6 -7 -16 -11 -23 -7
-6 3 -8 3 -4 -2 4 -4 0 -14 -10 -22 -15 -13 -15 -13 6 -3 16 8 22 8 22 0 0 -6
5 -8 10 -5 6 3 10 1 10 -4 0 -6 -4 -11 -10 -11 -5 0 -10 -7 -10 -15 0 -9 -7
-18 -15 -21 -13 -5 -13 -10 0 -40 10 -24 11 -33 2 -31 -7 1 -11 -6 -9 -15 2
-10 -1 -18 -7 -18 -10 0 -9 19 2 37 7 11 -7 53 -17 53 -2 0 -2 -14 0 -31 2
-16 0 -28 -4 -25 -4 2 -9 -4 -9 -15 -1 -10 3 -19 8 -19 6 0 7 -5 4 -10 -5 -8
-11 -8 -19 -1 -9 8 -13 7 -13 -4 0 -7 5 -13 10 -12 5 1 11 -3 14 -10 3 -8 -3
-11 -18 -8 -12 2 -18 1 -15 -3 4 -4 13 -7 19 -7 5 0 12 -6 15 -14 3 -8 0 -11
-7 -7 -7 5 -9 1 -5 -9 4 -9 3 -15 -2 -14 -28 5 -37 -2 -19 -15 10 -7 20 -23
22 -36 3 -19 1 -21 -12 -10 -13 11 -14 10 -9 -4 3 -9 11 -16 16 -16 6 0 8 -8
5 -19 -3 -12 1 -18 11 -17 8 0 17 -5 19 -11 3 -7 0 -13 -7 -13 -6 0 -8 5 -4
12 4 6 3 8 -2 5 -5 -3 -10 -20 -11 -39 -2 -29 -1 -30 7 -10 10 23 25 29 35 13
3 -6 -2 -14 -11 -19 -13 -7 -14 -13 -4 -31 6 -12 9 -27 7 -34 -6 -17 12 -49
24 -42 5 4 8 1 7 -7 -2 -7 4 -12 12 -10 11 2 11 -1 -2 -11 -10 -8 -18 -20 -18
-26 0 -7 -5 -9 -10 -6 -8 5 -7 11 1 21 10 12 9 17 -1 27 -10 9 -11 9 -6 0 4
-7 5 -13 1 -13 -3 0 -10 10 -15 23 -8 21 -9 21 -7 -5 1 -15 5 -24 9 -22 13 8
9 -11 -4 -25 -11 -10 -10 -12 2 -9 8 2 14 -3 12 -10 -2 -10 2 -10 17 -3 21 12
32 5 24 -15 -4 -10 0 -12 11 -8 9 3 13 10 10 15 -3 5 0 9 5 9 6 0 11 -4 11
-10 0 -13 -32 -28 -47 -23 -7 3 -13 0 -13 -7 0 -6 5 -8 12 -4 8 5 9 1 5 -12
-7 -18 -6 -18 7 -1 13 17 14 17 21 0 7 -17 13 -41 17 -70 1 -7 4 -12 7 -11 18
2 21 -4 12 -20 -7 -14 -6 -19 4 -19 7 0 11 7 7 15 -3 9 -1 13 5 9 5 -3 10 0
10 8 0 8 -5 11 -10 8 -6 -3 -7 -1 -3 6 5 7 2 10 -6 9 -7 -2 -12 3 -11 10 2 6
-2 12 -7 12 -18 0 -10 18 11 23 16 4 18 3 9 -8 -8 -10 -6 -17 11 -28 11 -9 18
-20 15 -26 -4 -5 -2 -12 4 -16 5 -3 10 -1 10 6 0 7 3 10 6 6 3 -3 1 -14 -5
-24 -7 -12 -10 -14 -11 -4 0 8 -3 12 -6 9 -3 -4 -1 -16 6 -27 6 -12 7 -21 1
-21 -5 0 -11 6 -14 13 -3 6 -4 2 -4 -10 1 -17 5 -20 18 -12 21 11 37 -7 34
-38 -1 -13 3 -19 8 -16 6 4 8 0 4 -9 -3 -9 -1 -15 6 -14 23 3 37 17 30 29 -13
20 -11 34 3 34 10 0 11 -4 3 -14 -9 -10 -7 -13 6 -13 16 0 16 -2 2 -24 -15
-22 -15 -24 1 -21 9 2 23 4 30 4 7 1 10 6 7 11 -3 6 -1 10 5 10 6 0 8 5 4 12
-4 7 -3 8 4 4 6 -4 9 -13 6 -21 -4 -9 3 -18 17 -24 19 -8 20 -10 6 -10 -10 -1
-15 -6 -12 -12 4 -6 14 -8 23 -4 14 5 14 3 -1 -13 -9 -10 -17 -23 -17 -28 0
-5 4 -4 8 1 4 6 16 17 27 25 20 15 20 14 1 -8 -11 -12 -15 -22 -9 -22 5 0 15
-10 20 -22 10 -22 11 -22 9 4 0 14 -5 24 -11 20 -6 -3 -6 -1 -2 4 5 5 12 9 15
9 4 0 12 3 18 7 6 4 11 1 11 -7 0 -8 -4 -12 -9 -9 -4 3 -8 -2 -8 -10 0 -19 11
-20 29 -3 14 12 14 11 -6 -40 -4 -10 6 -3 22 15 24 29 30 31 37 18 5 -9 15
-14 21 -10 7 3 3 -1 -7 -10 -10 -8 -23 -13 -27 -10 -5 3 -9 0 -9 -5 0 -6 5
-11 10 -11 6 0 10 -6 10 -14 0 -21 20 -30 33 -17 17 17 31 13 17 -4 -11 -13
-11 -18 0 -28 10 -9 11 -9 6 0 -4 7 -2 18 4 25 6 7 18 22 26 33 14 19 15 19 3
-4 -10 -21 -9 -23 6 -18 9 4 19 7 21 7 3 0 2 5 -2 12 -5 7 -3 8 7 2 8 -5 17
-9 21 -9 3 0 10 -3 14 -7 3 -4 -3 -6 -14 -3 -11 2 -25 -2 -31 -8 -7 -9 0 -11
29 -9 35 4 38 6 30 22 -7 13 -6 21 2 26 7 4 10 3 5 -1 -4 -5 0 -19 9 -33 9
-13 11 -21 5 -18 -6 4 -11 2 -11 -3 0 -15 15 -14 29 3 9 11 9 15 -1 19 -7 3
-3 4 9 4 12 -1 21 -6 20 -12 -1 -5 8 -9 21 -7 20 3 27 -7 23 -31 -1 -5 3 -6 8
-3 10 7 9 25 -1 42 -4 6 -1 11 7 11 8 0 12 -4 9 -9 -3 -4 0 -8 5 -8 6 0 10 -5
9 -12 -2 -7 2 -12 7 -13 6 0 16 -4 24 -9 9 -6 12 -5 8 0 -3 6 3 15 13 22 16 9
21 9 28 -4 8 -15 10 -15 15 0 4 9 2 15 -5 13 -6 -1 -13 5 -15 13 -4 12 -3 12
5 2 5 -8 13 -14 18 -15 5 -1 8 -9 7 -17 -1 -11 2 -11 12 3 10 13 14 15 18 5 4
-11 6 -11 6 0 1 7 6 10 11 7 6 -3 10 -1 10 4 0 6 5 11 11 11 6 0 8 -7 5 -16
-6 -15 -4 -15 10 -3 10 8 12 15 5 17 -14 5 -14 32 0 32 5 0 7 -5 4 -10 -3 -6
0 -10 8 -10 10 0 13 -7 10 -20 -3 -11 -3 -20 0 -20 16 0 13 44 -4 61 -10 10
-15 19 -10 19 6 0 13 -5 16 -10 3 -6 11 -10 18 -10 8 0 8 3 -1 12 -7 7 -12 16
-12 22 0 5 6 2 13 -9 8 -10 12 -33 10 -51 -2 -19 1 -34 6 -34 6 0 8 7 5 15 -5
11 -1 14 12 9 18 -5 18 -5 2 6 -10 6 -18 16 -18 22 0 7 4 7 14 -1 10 -9 16 -8
26 4 7 8 16 13 20 10 5 -3 12 0 16 6 4 8 3 9 -4 5 -8 -4 -12 0 -13 11 0 15 -2
14 -9 -3 -13 -34 -26 -36 -45 -8 -9 15 -12 24 -7 20 6 -3 13 -2 17 4 4 6 11 8
16 4 5 -3 17 0 26 8 14 11 16 11 9 -1 -7 -10 -4 -12 13 -6 15 4 20 2 18 -7 -2
-7 -2 -10 0 -5 3 4 10 4 15 1 7 -4 8 -2 4 4 -4 7 -2 12 3 12 6 0 11 5 11 11 0
5 -4 7 -10 4 -5 -3 -10 -1 -10 6 0 6 8 9 20 6 11 -3 20 -1 20 5 0 5 5 6 10 3
6 -4 7 -11 4 -17 -4 -6 -2 -8 3 -5 6 4 9 20 7 36 -4 32 17 57 37 45 9 -5 10
-2 6 10 -5 11 -3 15 5 10 8 -5 9 -2 5 10 -5 11 -3 15 5 10 8 -5 9 -2 5 10 -4
9 -3 15 2 11 12 -7 10 -45 -2 -45 -5 0 -7 -6 -4 -14 4 -10 -1 -13 -19 -11 -13
1 -27 -2 -30 -7 -7 -10 72 -5 83 6 5 4 3 6 -2 4 -6 -2 -10 1 -10 7 0 5 5 9 11
7 6 -1 17 6 25 15 11 15 11 16 -1 6 -23 -21 -35 -15 -15 7 13 15 21 17 31 9 9
-7 12 -7 10 3 -3 22 -17 39 -27 32 -5 -3 -7 -8 -5 -12 2 -4 -2 -13 -9 -19 -11
-10 -13 -8 -11 12 2 14 6 25 10 24 4 0 19 12 32 27 20 21 28 24 37 14 9 -10 9
-11 -2 -5 -10 6 -12 4 -6 -5 6 -9 4 -11 -5 -5 -9 6 -11 4 -5 -5 5 -8 4 -11 -3
-6 -6 3 -13 2 -16 -3 -3 -5 0 -11 8 -14 8 -3 17 1 20 9 3 8 9 14 13 13 21 -3
21 4 2 38 -13 22 -15 32 -7 25 8 -6 18 -9 22 -5 4 4 4 0 1 -8 -3 -9 2 -22 12
-30 16 -12 17 -12 7 1 -6 8 -11 28 -12 44 -1 16 -8 36 -15 45 -10 14 -10 14 4
4 12 -10 20 -9 39 4 22 15 23 15 17 0 -3 -9 -2 -19 4 -22 5 -4 8 -3 7 2 -1 4
2 18 6 31 7 22 9 22 20 6 12 -15 13 -15 11 7 -1 13 2 34 6 47 8 20 7 21 -11
12 -11 -6 -20 -13 -20 -16 0 -3 5 -2 10 1 6 3 10 2 10 -4 0 -14 -20 -25 -21
-12 -4 35 -2 46 10 43 8 -2 11 3 8 12 -4 9 -1 18 5 22 6 4 8 3 4 -4 -3 -6 -2
-13 3 -16 5 -4 12 -2 15 3 8 13 -21 34 -35 25 -8 -4 -9 -3 -5 4 4 7 13 12 21
12 17 0 27 16 29 44 1 11 7 20 14 19 18 -4 15 14 -4 21 -13 5 -14 9 -4 21 9
10 9 15 1 15 -10 0 -15 -13 -12 -32 0 -5 -4 -8 -9 -8 -6 0 -10 -5 -10 -11 0
-5 5 -7 11 -3 8 4 8 1 1 -12 -5 -11 -7 -26 -5 -34 3 -12 2 -12 -5 -2 -5 7 -7
27 -5 45 8 73 8 82 -4 80 -7 -2 -13 2 -13 7 0 14 13 13 28 -2 9 -9 12 -9 12
-1 0 7 -4 15 -10 18 -5 3 -9 17 -8 30 1 13 6 21 10 19 13 -8 9 11 -4 26 -11
12 -10 12 2 3 8 -6 19 -11 23 -11 5 0 12 -4 15 -8 4 -4 0 -4 -8 1 -8 5 -12 5
-8 0 4 -4 0 -14 -10 -21 -14 -11 -15 -16 -4 -34 7 -11 10 -24 8 -29 -3 -4 1
-8 9 -8 12 0 12 5 -1 28 -10 21 -11 30 -2 35 6 4 8 3 5 -3 -4 -6 1 -17 10 -24
14 -12 16 -12 8 0 -6 11 -4 13 11 8 15 -6 13 -3 -5 11 -16 13 -20 22 -12 26 6
4 11 2 11 -3 0 -6 5 -11 12 -11 8 0 6 6 -4 17 -16 15 -16 18 8 40 14 13 22 23
18 23 -4 0 -18 -10 -31 -22 -13 -12 -23 -17 -23 -11 0 6 7 16 15 23 8 7 15 18
15 24 0 6 -4 5 -9 -3 -5 -8 -11 -9 -15 -3 -3 6 -2 13 3 17 5 3 9 14 8 25 -1
10 -5 16 -9 14 -4 -3 -8 0 -8 5 0 6 6 11 13 11 8 0 7 3 -3 9 -23 15 -32 1 -16
-25 18 -26 20 -38 7 -29 -5 3 -13 0 -17 -6 -4 -7 -3 -9 3 -6 5 3 10 0 10 -8 0
-8 -5 -15 -11 -15 -6 0 -5 -4 3 -9 9 -6 10 -11 2 -15 -6 -4 -11 -2 -11 4 0 6
-4 9 -8 6 -5 -3 -9 1 -9 9 0 8 4 12 9 9 12 -8 5 26 -15 65 -11 21 -12 29 -3
22 16 -14 26 -4 26 26 0 25 -10 29 -28 11 -9 -9 -12 -9 -12 0 0 7 5 12 11 12
8 0 7 5 -1 15 -7 9 -10 18 -6 22 3 3 6 1 6 -6 0 -7 5 -9 10 -6 7 4 7 12 0 24
-5 10 -6 21 -3 25 6 5 -12 10 -29 7 -5 0 -8 3 -8 9 0 5 12 9 26 8 18 -2 24 -7
21 -19 -3 -9 -1 -23 4 -30 4 -7 4 -18 -1 -24 -6 -7 -2 -15 9 -22 14 -9 18 -8
18 3 0 7 -4 11 -8 8 -4 -2 -8 6 -8 18 0 13 -1 33 -1 45 0 12 -5 25 -10 28 -6
3 -10 15 -10 26 0 13 4 18 12 13 7 -5 8 -3 4 5 -5 7 -11 10 -14 7 -3 -3 -11
-1 -18 5 -8 7 -14 6 -20 -2 -5 -8 -3 -9 5 -4 10 6 11 3 1 -14 -9 -18 -30 -21
-30 -5 0 3 5 2 10 -1 7 -4 9 3 6 19 -2 14 1 27 7 30 8 3 8 5 -1 5 -8 1 -10 6
-6 14 5 8 2 7 -10 -2 -12 -10 -20 -11 -28 -3 -6 6 -17 8 -24 5 -16 -6 -19 13
-4 22 6 4 7 11 4 17 -5 7 -2 8 7 4 8 -4 3 2 -11 13 -14 11 -29 21 -33 21 -5 0
-5 5 -2 10 3 6 1 10 -4 10 -6 0 -11 -4 -11 -10 0 -5 -4 -10 -10 -10 -16 0 -12
17 6 24 10 4 25 -3 40 -19 24 -26 44 -33 44 -14 0 5 -4 8 -8 5 -4 -2 -14 0
-22 5 -13 8 -13 10 0 19 8 5 11 10 6 10 -5 0 -5 6 0 13 5 7 2 5 -7 -5 -18 -19
-35 -12 -18 8 13 16 2 37 -13 28 -7 -5 -9 -1 -5 9 3 9 2 19 -2 21 -5 3 -8 -5
-7 -17 1 -12 7 -21 14 -19 15 3 16 -14 1 -23 -15 -10 -37 25 -34 52 2 19 0 21
-12 11 -11 -9 -12 -13 -1 -20 10 -7 10 -8 -2 -5 -8 2 -14 10 -12 16 1 7 -5 20
-15 29 -16 16 -16 16 -10 -1 5 -13 3 -17 -5 -14 -7 2 -12 11 -10 21 2 9 -1 16
-6 16 -13 0 -69 52 -75 70 -5 13 -6 13 -6 0 -1 -18 -48 -23 -54 -6 -3 7 1 13
9 13 7 0 11 -4 8 -9 -3 -4 2 -5 11 -1 13 4 14 8 4 14 -7 4 -17 5 -21 3 -5 -3
-12 5 -17 18 -7 17 -10 19 -10 6 -1 -11 -9 -18 -21 -18 -11 0 -20 -4 -20 -10
0 -5 -5 -10 -11 -10 -6 0 -7 5 -2 13 4 6 9 20 10 30 2 14 -2 17 -15 13 -13 -4
-19 -1 -19 9 0 8 3 15 7 15 4 0 7 7 7 16 0 15 -2 14 -13 -1 -8 -10 -11 -22 -7
-28 3 -5 0 -8 -8 -5 -16 5 -19 30 -5 40 6 4 8 9 5 13 -3 3 -14 -4 -23 -14 -18
-19 -17 -21 9 -45 22 -20 31 -23 42 -15 11 9 12 9 7 -4 -3 -9 -14 -15 -24 -14
-10 1 -17 4 -15 8 3 3 -7 12 -20 19 -14 7 -25 19 -25 25 0 7 -7 18 -15 25 -8
7 -12 17 -8 23 3 6 1 7 -5 3 -9 -5 -7 -15 6 -34 9 -14 11 -23 5 -19 -9 6 -13
2 -14 -10 -1 -20 -4 -12 -14 31 -4 21 -9 26 -14 17 -7 -11 -14 -10 -37 4 l-29
17 25 -21 c14 -11 30 -19 36 -17 7 3 10 -3 7 -15 -5 -16 -8 -17 -17 -6 -6 7
-24 21 -41 31 l-30 17 33 -30 c18 -17 28 -31 23 -31 -5 0 -14 7 -21 15 -7 9
-15 13 -18 10 -3 -3 -12 5 -20 17 -7 13 -11 15 -8 6 3 -10 0 -20 -6 -24 -7 -5
-8 -3 -4 5 11 18 -25 10 -44 -9 -8 -9 -12 -11 -8 -5 4 7 5 15 1 18 -3 4 -1 8
5 8 7 1 17 2 24 3 6 0 13 8 15 16 4 13 3 13 -6 0 -6 -8 -11 -11 -11 -7 0 4
-10 3 -21 -4 -13 -6 -24 -7 -28 -2 -7 11 -61 12 -61 1 0 -4 -8 -8 -17 -8 -13
0 -14 -3 -5 -12 7 -7 12 -17 12 -22 0 -6 -5 -3 -11 7 -5 9 -15 17 -21 17 -7 0
-7 -4 1 -13 8 -10 7 -14 -4 -14 -8 0 -12 4 -9 9 3 4 -2 8 -11 8 -11 0 -15 -5
-11 -15 8 -22 -2 -18 -14 5 -6 11 -7 19 -3 18 14 -3 53 13 53 22 0 5 -5 12
-10 15 -6 4 -9 1 -8 -7 2 -7 -4 -13 -12 -13 -8 0 -14 6 -12 13 2 11 -6 18 -9
7z m153 -33 c9 -9 6 -10 -11 -7 -18 3 -22 1 -17 -13 6 -16 5 -16 -7 0 -8 10
-17 15 -20 11 -4 -3 -7 -1 -7 5 0 21 42 24 62 4z m236 -57 c-3 -3 -9 2 -12 12
-6 14 -5 15 5 6 7 -7 10 -15 7 -18z m-277 -2 c13 -16 12 -17 -3 -4 -17 13 -22
21 -14 21 2 0 10 -8 17 -17z m-201 -38 c14 -19 14 -19 -2 -6 -10 7 -18 18 -18
24 0 6 1 8 3 6 1 -2 9 -13 17 -24z m45 15 c-3 -5 -12 -10 -18 -10 -7 0 -6 4 3
10 19 12 23 12 15 0z m50 0 c3 -5 1 -10 -4 -10 -6 0 -11 5 -11 10 0 6 2 10 4
10 3 0 8 -4 11 -10z m385 6 c0 -3 -4 -8 -10 -11 -5 -3 -10 -1 -10 4 0 6 5 11
10 11 6 0 10 -2 10 -4z m143 -16 c-6 -21 -25 -28 -20 -7 2 10 16 26 24 27 0 0
-1 -9 -4 -20z m142 -101 c1 -15 -1 -16 -20 -3 -12 8 -25 12 -28 9 -4 -3 -3 1
3 7 12 15 13 31 1 24 -5 -3 -14 1 -21 9 -7 8 -20 15 -29 16 -12 0 -11 2 4 8
15 6 29 1 54 -22 19 -16 36 -38 36 -48z m-929 44 c-10 -10 -19 5 -10 18 6 11
8 11 12 0 2 -7 1 -15 -2 -18z m859 -13 c3 -5 1 -10 -4 -10 -6 0 -11 5 -11 10
0 6 2 10 4 10 3 0 8 -4 11 -10z m111 -58 c0 -10 -6 -19 -13 -19 -17 0 -8 28
12 37 1 0 1 -8 1 -18z m40 -46 c1 -10 0 -15 -3 -12 -4 3 -13 0 -22 -6 -13 -10
-14 -10 -4 1 6 7 9 20 6 29 -4 9 -1 13 7 10 7 -2 14 -12 16 -22z m50 -85 c1
-6 0 -7 -3 -1 -2 5 -9 8 -13 5 -5 -3 -11 -1 -14 4 -4 5 2 8 11 7 9 -2 18 -8
19 -15z m-1280 -64 c4 -3 -3 -5 -15 -2 -13 2 -21 -1 -21 -11 0 -8 -5 -14 -11
-14 -5 0 -8 -4 -5 -8 3 -5 -1 -9 -9 -9 -13 0 -12 4 2 19 9 10 12 18 7 18 -5 0
-3 4 5 9 15 10 37 9 47 -2z m1343 -9 c-5 -10 -13 -18 -16 -18 -3 0 -3 3 0 7 4
3 0 11 -8 17 -13 9 -11 11 9 11 20 0 22 -3 15 -17z m43 -50 c-8 -8 -9 -4 -5
13 4 13 8 18 11 10 2 -7 -1 -18 -6 -23z m-1479 -188 c3 -10 2 -19 -2 -18 -20
2 -21 -4 -4 -19 10 -10 14 -14 7 -10 -7 4 -15 4 -18 -2 -4 -5 2 -15 11 -21 15
-9 14 -10 -7 -4 -22 6 -23 5 -12 -9 11 -13 11 -15 -3 -13 -8 1 -21 8 -28 16
-9 9 -9 11 0 6 13 -7 37 29 28 44 -3 5 -1 11 5 15 5 3 10 11 10 16 0 6 -5 7
-12 3 -7 -4 -8 -3 -4 4 11 18 23 14 29 -8z m1497 -40 c0 -5 -2 -10 -4 -10 -3
0 -8 5 -11 10 -3 6 -1 10 4 10 6 0 11 -4 11 -10z m-1501 -81 c-8 -5 -10 -9 -5
-9 5 0 2 -8 -5 -17 -12 -14 -12 -16 1 -11 11 4 16 -1 17 -16 0 -11 -1 -15 -4
-8 -3 6 -11 12 -18 12 -17 0 -27 27 -13 36 7 4 6 9 -2 14 -7 4 -1 8 15 8 19 0
23 -3 14 -9z m25 -159 c-8 -8 -15 -5 -25 7 -13 17 -13 17 5 3 18 -14 19 -13
12 5 -6 16 -5 18 5 8 9 -9 10 -16 3 -23z m-7 -39 c0 -11 -5 -18 -9 -15 -4 3
-5 11 -1 19 7 21 12 19 10 -4z m1447 -139 c2 -4 1 -14 -5 -22 -7 -13 -9 -13
-9 0 0 13 -2 13 -9 1 -12 -19 -38 -22 -38 -5 0 7 4 11 8 8 4 -2 14 2 21 10 15
17 25 20 32 8z m-1368 -14 c4 -7 3 -8 -4 -4 -7 4 -12 3 -12 -3 0 -5 6 -12 13
-14 9 -4 9 -6 0 -6 -15 -1 -26 16 -18 29 8 13 12 13 21 -2z m44 -48 c0 -5 -5
-10 -11 -10 -5 0 -7 5 -4 10 3 6 8 10 11 10 2 0 4 -4 4 -10z m55 -69 c3 -5 2
-12 -3 -15 -5 -3 -9 1 -9 9 0 17 3 19 12 6z m-31 -32 c-4 -8 1 -9 17 -5 13 3
18 3 12 0 -7 -3 -13 -10 -13 -15 0 -6 5 -7 10 -4 6 3 10 1 10 -4 0 -6 -4 -11
-8 -11 -14 0 -43 36 -35 43 10 11 15 8 7 -4z m43 -69 c7 -10 9 -21 4 -24 -4
-3 -13 6 -19 19 -14 30 -2 33 15 5z m999 -28 c-17 -16 -18 -16 -5 5 7 12 15
20 18 17 3 -2 -3 -12 -13 -22z m-18 -53 c-7 -5 -17 -9 -23 -9 -5 0 -4 4 4 9 8
5 10 14 5 22 -6 11 -4 11 10 0 13 -11 14 -16 4 -22z m-178 -22 c0 -2 -9 -12
-19 -21 -14 -13 -21 -14 -27 -5 -4 7 -3 10 3 6 6 -4 16 0 23 8 12 14 20 19 20
12z m70 -5 c0 -5 -7 -9 -15 -9 -8 0 -12 4 -9 9 3 4 9 8 15 8 5 0 9 -4 9 -8z
m54 -8 c3 -8 2 -12 -4 -9 -6 3 -10 10 -10 16 0 14 7 11 14 -7z m-596 -45 c-3
-8 -7 -3 -11 10 -4 17 -3 21 5 13 5 -5 8 -16 6 -23z m75 16 c-3 -9 -8 -14 -10
-11 -3 3 -2 9 2 15 9 16 15 13 8 -4z m341 -11 c3 -8 2 -12 -4 -9 -6 3 -10 10
-10 16 0 14 7 11 14 -7z m-424 -38 c0 -4 -6 -3 -14 3 -10 9 -15 8 -20 -4 -8
-21 -23 -19 -29 5 -3 11 -1 18 3 15 5 -3 11 -1 15 5 7 11 45 -9 45 -24z m360
8 c0 -8 -19 -13 -24 -6 -3 5 1 9 9 9 8 0 15 -2 15 -3z m55 -4 c6 -10 -7 -20
-35 -25 -11 -2 -20 0 -20 6 0 5 5 9 11 9 5 0 8 4 5 8 -2 4 4 8 14 9 11 1 22
-2 25 -7z m-108 -22 c-2 -7 -10 -12 -16 -10 -6 1 -11 -2 -11 -6 0 -5 -7 -9
-16 -9 -12 0 -10 5 7 18 28 22 43 24 36 7z"/>
<path d="M2980 3056 c0 -2 8 -10 18 -17 15 -13 16 -12 3 4 -13 16 -21 21 -21
13z"/>
<path d="M3028 3003 c7 -3 16 -2 19 1 4 3 -2 6 -13 5 -11 0 -14 -3 -6 -6z"/>
<path d="M2295 1649 c-4 -6 -5 -12 -2 -15 2 -3 7 2 10 11 7 17 1 20 -8 4z"/>
<path d="M2725 1630 c-3 -6 1 -7 9 -4 18 7 21 14 7 14 -6 0 -13 -4 -16 -10z"/>
<path d="M2773 3205 c0 -8 4 -12 9 -9 5 3 6 10 3 15 -9 13 -12 11 -12 -6z"/>
<path d="M2350 3202 c0 -12 -49 -33 -61 -27 -5 4 -6 -2 -2 -12 6 -16 5 -16
-10 -4 -9 7 -14 18 -10 25 3 6 2 7 -3 3 -5 -5 -9 -18 -9 -30 0 -14 -6 -22 -16
-21 -12 1 -15 -5 -11 -19 5 -19 6 -18 24 7 11 14 24 24 28 21 5 -3 12 -1 15 5
5 8 11 8 20 0 9 -8 15 -8 20 0 3 5 -2 10 -12 10 -13 1 -11 5 10 16 23 13 37
34 22 34 -3 0 -5 -4 -5 -8z"/>
<path d="M3365 3180 c-3 -5 1 -10 10 -10 9 0 13 5 10 10 -3 6 -8 10 -10 10 -2
0 -7 -4 -10 -10z"/>
<path d="M2880 3135 c-7 -9 -8 -15 -2 -15 5 0 12 7 16 15 3 8 4 15 2 15 -2 0
-9 -7 -16 -15z"/>
<path d="M1687 3089 c12 -13 6 -42 -8 -34 -4 3 -13 -4 -19 -15 -7 -13 -17 -19
-26 -16 -9 3 -12 1 -9 -4 3 -6 11 -10 17 -10 6 0 21 -8 32 -17 21 -18 21 -18
4 3 -22 25 -24 41 -3 24 10 -9 15 -9 15 -1 0 6 -4 11 -10 11 -5 0 -10 5 -10
10 0 11 22 9 31 -3 3 -5 6 5 7 22 0 19 -5 32 -16 36 -13 5 -14 3 -5 -6z"/>
<path d="M2115 3090 c3 -5 8 -10 11 -10 2 0 4 5 4 10 0 6 -5 10 -11 10 -5 0
-7 -4 -4 -10z"/>
<path d="M3000 3086 c0 -2 8 -10 18 -17 15 -13 16 -12 3 4 -13 16 -21 21 -21
13z"/>
<path d="M2074 3046 c1 -8 5 -18 8 -22 4 -3 5 1 4 10 -1 8 -5 18 -8 22 -4 3
-5 -1 -4 -10z"/>
<path d="M1992 3007 c-8 -10 -6 -13 11 -14 12 0 16 1 9 4 -6 3 -10 9 -6 14 8
14 -2 11 -14 -4z"/>
<path d="M3476 2967 c3 -10 9 -15 12 -12 3 3 0 11 -7 18 -10 9 -11 8 -5 -6z"/>
<path d="M1890 2879 c0 -5 5 -7 10 -4 6 3 10 8 10 11 0 2 -4 4 -10 4 -5 0 -10
-5 -10 -11z"/>
<path d="M1870 2856 c0 -2 8 -10 18 -17 15 -13 16 -12 3 4 -13 16 -21 21 -21
13z"/>
<path d="M3517 2853 c-10 -9 -9 -23 1 -23 5 0 9 7 9 15 0 17 -1 18 -10 8z"/>
<path d="M3565 2849 c-4 -6 -5 -12 -2 -15 2 -3 7 2 10 11 7 17 1 20 -8 4z"/>
<path d="M3219 2818 c-8 -7 -12 -12 -10 -11 2 2 10 -2 17 -8 8 -7 14 -6 20 2
4 8 3 9 -4 5 -7 -4 -12 -3 -12 3 0 5 6 12 13 14 6 3 7 6 1 6 -5 1 -17 -5 -25
-11z"/>
<path d="M1835 2811 c-3 -5 -2 -12 3 -15 5 -3 9 1 9 9 0 17 -3 19 -12 6z"/>
<path d="M1511 2746 c-6 -7 -8 -16 -4 -19 3 -4 -2 -16 -12 -27 -10 -11 -16
-23 -12 -26 3 -3 10 4 17 15 6 12 16 18 22 15 7 -5 8 -2 3 6 -5 8 -2 18 9 25
14 11 14 14 2 18 -8 3 -19 0 -25 -7z"/>
<path d="M3586 2727 c3 -10 9 -15 12 -12 3 3 0 11 -7 18 -10 9 -11 8 -5 -6z"/>
<path d="M1810 2691 c-8 -6 -19 -7 -25 -3 -5 3 -4 -2 4 -11 17 -21 18 -21 31
3 12 22 11 24 -10 11z"/>
<path d="M3592 2675 c15 -16 20 -17 30 -6 11 11 10 13 0 7 -7 -4 -21 -2 -30 5
-15 12 -15 11 0 -6z"/>
<path d="M3610 2640 c0 -5 5 -10 11 -10 5 0 7 5 4 10 -3 6 -8 10 -11 10 -2 0
-4 -4 -4 -10z"/>
<path d="M1490 2615 c-10 -12 -4 -25 11 -25 5 0 5 8 2 18 -6 14 -4 15 8 5 13
-10 16 -10 16 0 0 17 -24 18 -37 2z"/>
<path d="M3352 2571 c-11 -7 -11 -9 0 -14 9 -3 15 1 15 9 0 8 -1 14 -1 14 -1
0 -7 -4 -14 -9z"/>
<path d="M3620 2530 c-12 -7 -10 -9 7 -7 12 0 19 5 17 9 -6 10 -6 10 -24 -2z"/>
<path d="M1495 2520 c3 -5 8 -10 11 -10 2 0 4 5 4 10 0 6 -5 10 -11 10 -5 0
-7 -4 -4 -10z"/>
<path d="M3320 2518 c0 -9 5 -20 10 -23 13 -8 13 5 0 25 -8 13 -10 13 -10 -2z"/>
<path d="M1482 2496 c7 -8 15 -12 17 -11 5 6 -10 25 -20 25 -5 0 -4 -6 3 -14z"/>
<path d="M1722 2484 c10 -10 20 -16 22 -13 3 3 -5 11 -17 18 -21 13 -21 12 -5
-5z"/>
<path d="M3615 2469 c-4 -6 -5 -12 -2 -15 2 -3 7 2 10 11 7 17 1 20 -8 4z"/>
<path d="M1718 2412 c4 -10 7 -12 10 -4 2 7 9 9 15 5 7 -3 8 -2 4 2 -14 16
-36 14 -29 -3z"/>
<path d="M3390 2400 c0 -5 5 -10 11 -10 5 0 7 5 4 10 -3 6 -8 10 -11 10 -2 0
-4 -4 -4 -10z"/>
<path d="M3673 2403 c4 -3 -1 -15 -10 -25 -13 -15 -14 -21 -4 -31 10 -9 11 -9
6 5 -4 11 1 20 15 28 20 11 19 30 -2 30 -6 0 -8 -3 -5 -7z"/>
<path d="M1736 2323 c-6 -14 -5 -15 5 -6 7 7 10 15 7 18 -3 3 -9 -2 -12 -12z"/>
<path d="M3386 2318 c3 -5 10 -6 15 -3 13 9 11 12 -6 12 -8 0 -12 -4 -9 -9z"/>
<path d="M1495 2300 c3 -5 8 -10 11 -10 2 0 4 5 4 10 0 6 -5 10 -11 10 -5 0
-7 -4 -4 -10z"/>
<path d="M3356 2273 c-6 -14 -5 -15 5 -6 7 7 10 15 7 18 -3 3 -9 -2 -12 -12z"/>
<path d="M3386 2282 c-3 -5 1 -9 9 -9 8 0 12 4 9 9 -3 4 -7 8 -9 8 -2 0 -6 -4
-9 -8z"/>
<path d="M3630 2268 c0 -4 4 -8 9 -8 6 0 12 4 15 8 3 5 -1 9 -9 9 -8 0 -15 -4
-15 -9z"/>
<path d="M1780 2220 c0 -5 5 -10 11 -10 5 0 7 5 4 10 -3 6 -8 10 -11 10 -2 0
-4 -4 -4 -10z"/>
<path d="M3330 2160 c0 -5 5 -10 11 -10 5 0 7 5 4 10 -3 6 -8 10 -11 10 -2 0
-4 -4 -4 -10z"/>
<path d="M1515 2010 c-3 -5 -1 -10 4 -10 6 0 11 5 11 10 0 6 -2 10 -4 10 -3 0
-8 -4 -11 -10z"/>
<path d="M1855 2011 c-3 -5 -2 -12 3 -15 5 -3 9 1 9 9 0 17 -3 19 -12 6z"/>
<path d="M3600 2010 c13 -9 13 -10 0 -10 -13 0 -13 -1 0 -10 11 -7 12 -10 2
-10 -8 0 -12 -5 -10 -11 4 -13 23 -13 23 0 0 5 3 13 7 17 9 9 -10 34 -26 34
-6 0 -4 -5 4 -10z"/>
<path d="M1513 1974 c0 -7 6 -10 14 -7 7 3 13 8 13 12 0 4 -6 8 -13 8 -8 0
-14 -6 -14 -13z"/>
<path d="M3530 1961 c0 -6 4 -13 10 -16 6 -3 7 1 4 9 -7 18 -14 21 -14 7z"/>
<path d="M3566 1957 c3 -10 9 -15 12 -12 3 3 0 11 -7 18 -10 9 -11 8 -5 -6z"/>
<path d="M1557 1935 c-8 -8 -17 -12 -19 -10 -3 3 -5 -2 -5 -10 0 -12 6 -10 26
7 14 13 28 24 30 26 2 1 -1 2 -7 2 -6 0 -17 -7 -25 -15z"/>
<path d="M1590 1855 c-10 -12 -9 -16 6 -21 11 -4 22 -8 25 -10 3 -2 5 7 4 18
-2 27 -18 33 -35 13z m25 -5 c-3 -5 -11 -10 -16 -10 -6 0 -7 5 -4 10 3 6 11
10 16 10 6 0 7 -4 4 -10z"/>
<path d="M3176 1862 c-3 -5 1 -9 9 -9 8 0 12 4 9 9 -3 4 -7 8 -9 8 -2 0 -6 -4
-9 -8z"/>
<path d="M1960 1849 c0 -5 -4 -7 -10 -4 -14 9 -12 -1 3 -13 10 -8 13 -6 14 9
1 10 0 19 -3 19 -2 0 -4 -5 -4 -11z"/>
<path d="M3435 1801 c-3 -5 -2 -12 3 -15 5 -3 9 1 9 9 0 17 -3 19 -12 6z"/>
<path d="M2080 1780 c-12 -8 -10 -10 8 -10 13 0 20 4 17 10 -7 12 -6 12 -25 0z"/>
<path d="M3464 1782 c3 -6 1 -12 -6 -14 -8 -3 -7 -6 3 -10 27 -10 40 6 18 21
-12 7 -18 8 -15 3z"/>
<path d="M1690 1760 c0 -5 5 -10 11 -10 5 0 7 5 4 10 -3 6 -8 10 -11 10 -2 0
-4 -4 -4 -10z"/>
<path d="M2093 1744 c0 -16 13 -19 21 -5 3 5 0 11 -7 14 -8 3 -14 -1 -14 -9z"/>
<path d="M3030 1739 c0 -5 5 -7 10 -4 6 3 10 8 10 11 0 2 -4 4 -10 4 -5 0 -10
-5 -10 -11z"/>
<path d="M2995 1690 c-4 -6 -11 -7 -17 -4 -7 4 -8 2 -4 -5 6 -9 11 -9 22 0 14
11 18 19 10 19 -3 0 -8 -5 -11 -10z"/>
<path d="M3393 1687 c-3 -6 -1 -13 5 -15 8 -2 8 -7 -1 -17 -7 -7 -15 -11 -19
-8 -4 2 -5 -3 -1 -12 5 -14 10 -12 30 14 13 17 25 33 26 37 3 12 -33 13 -40 1z
m37 -3 c0 -8 -19 -13 -24 -6 -3 5 1 9 9 9 8 0 15 -2 15 -3z"/>
<path d="M2246 1682 c-3 -5 1 -9 9 -9 8 0 15 4 15 9 0 4 -4 8 -9 8 -6 0 -12
-4 -15 -8z"/>
<path d="M2856 1681 c-4 -5 -2 -12 3 -15 5 -4 12 -2 15 3 4 5 2 12 -3 15 -5 4
-12 2 -15 -3z"/>
<path d="M1820 1599 c0 -4 6 -9 13 -12 8 -3 14 0 14 7 0 7 -6 13 -14 13 -7 0
-13 -4 -13 -8z"/>
<path d="M2480 1587 c-12 -19 -11 -20 2 -10 8 7 25 11 38 8 12 -2 19 -1 16 3
-4 4 -11 7 -14 7 -4 0 -12 3 -17 7 -6 4 -17 -3 -25 -15z"/>
<path d="M2355 1580 c-3 -6 1 -7 9 -4 18 7 21 14 7 14 -6 0 -13 -4 -16 -10z"/>
<path d="M3268 1568 c-9 -5 -6 -7 9 -5 12 2 25 6 28 8 8 9 -23 6 -37 -3z"/>
<path d="M3260 1520 c0 -5 5 -10 11 -10 5 0 7 5 4 10 -3 6 -8 10 -11 10 -2 0
-4 -4 -4 -10z"/>
<path d="M2055 1439 c-4 -6 -5 -12 -2 -15 2 -3 7 2 10 11 7 17 1 20 -8 4z"/>
<path d="M3115 1440 c-4 -6 -10 -8 -15 -5 -5 3 -13 -3 -19 -12 -6 -10 -11 -12
-11 -5 0 6 -5 12 -11 12 -8 0 -9 -4 0 -13 6 -8 10 -16 8 -18 -1 -3 5 3 14 13
9 9 19 15 21 12 3 -2 11 2 18 11 7 8 10 15 7 15 -3 0 -9 -5 -12 -10z"/>
<path d="M2275 1401 c-3 -5 -2 -12 3 -15 5 -3 9 1 9 9 0 17 -3 19 -12 6z"/>
<path d="M2930 1400 c-9 -6 -10 -10 -3 -10 6 0 15 5 18 10 8 12 4 12 -15 0z"/>
<path d="M2970 1398 c0 -9 5 -20 10 -23 13 -8 13 5 0 25 -8 13 -10 13 -10 -2z"/>
<path d="M3035 1400 c3 -5 8 -10 11 -10 2 0 4 5 4 10 0 6 -5 10 -11 10 -5 0
-7 -4 -4 -10z"/>
<path d="M2756 1382 c-2 -4 2 -16 10 -27 8 -10 14 -14 14 -8 0 7 -5 15 -10 18
-6 4 -8 11 -5 16 4 5 4 9 1 9 -3 0 -7 -3 -10 -8z"/>
<path d="M2817 1383 c-4 -3 -2 -12 4 -20 13 -15 -2 -18 -17 -3 -7 7 -11 6 -11
-4 0 -8 3 -13 7 -11 3 2 12 0 20 -6 11 -6 7 -9 -14 -9 -22 0 -27 -3 -19 -11
12 -12 51 5 88 38 11 10 18 17 16 16 -2 -2 -10 2 -18 9 -11 8 -12 7 -7 -5 4
-11 0 -14 -13 -12 -10 2 -22 4 -26 4 -5 1 -5 6 -2 11 7 11 2 13 -8 3z m38 -33
c-3 -5 -12 -10 -18 -10 -7 0 -6 4 3 10 19 12 23 12 15 0z"/>
<path d="M2410 1345 c0 -7 30 -13 34 -7 3 4 -4 9 -15 9 -10 1 -19 0 -19 -2z"/>
<path d="M815 3500 c1 -11 5 -23 10 -27 4 -5 5 -2 1 5 -9 15 20 17 29 2 4 -6
10 -8 15 -5 5 3 12 0 16 -6 4 -8 3 -9 -4 -5 -7 4 -12 2 -12 -4 0 -7 9 -9 23
-5 22 6 22 6 2 -10 -14 -12 -16 -16 -5 -15 28 4 41 0 35 -10 -4 -6 1 -7 10 -3
14 5 11 11 -17 40 -18 18 -44 35 -57 38 -13 2 -29 9 -35 14 -9 8 -12 5 -11 -9z"/>
<path d="M850 3426 c0 -2 7 -7 16 -10 8 -3 12 -2 9 4 -6 10 -25 14 -25 6z"/>
<path d="M895 3409 c-4 -6 -5 -12 -2 -15 2 -3 7 2 10 11 7 17 1 20 -8 4z"/>
<path d="M703 3244 c0 -7 6 -10 14 -7 7 3 13 8 13 12 0 4 -6 8 -13 8 -8 0 -14
-6 -14 -13z"/>
<path d="M2734 4499 c-3 -6 -1 -16 5 -22 9 -9 11 -8 6 6 -9 21 -1 22 19 2 8
-8 17 -11 20 -7 3 5 -6 14 -19 20 -17 8 -26 8 -31 1z"/>
<path d="M2283 4485 c0 -7 6 -11 14 -8 7 3 13 6 13 8 0 2 -6 5 -13 8 -8 3 -14
-1 -14 -8z"/>
<path d="M2363 4485 c0 -7 6 -11 14 -8 7 3 13 6 13 8 0 2 -6 5 -13 8 -8 3 -14
-1 -14 -8z"/>
<path d="M2443 4485 c0 -7 6 -11 14 -8 7 3 13 6 13 8 0 2 -6 5 -13 8 -8 3 -14
-1 -14 -8z"/>
<path d="M2523 4485 c0 -7 6 -11 14 -8 7 3 13 6 13 8 0 2 -6 5 -13 8 -8 3 -14
-1 -14 -8z"/>
<path d="M3131 4474 c0 -11 3 -14 6 -6 3 7 2 16 -1 19 -3 4 -6 -2 -5 -13z"/>
<path d="M2046 4467 c-16 -12 -16 -14 -3 -14 9 0 18 6 21 14 3 7 4 13 3 13 -2
0 -11 -6 -21 -13z"/>
<path d="M3140 4441 c0 -15 48 -42 55 -31 4 6 3 10 -2 9 -20 -3 -27 2 -13 11
8 5 11 13 6 17 -5 4 -11 2 -13 -4 -3 -7 -9 -13 -14 -13 -6 0 -7 5 -4 10 3 6 1
10 -4 10 -6 0 -11 -4 -11 -9z"/>
<path d="M1875 4410 c-3 -6 1 -7 9 -4 18 7 21 14 7 14 -6 0 -13 -4 -16 -10z"/>
<path d="M1790 4379 c0 -5 5 -7 10 -4 6 3 10 8 10 11 0 2 -4 4 -10 4 -5 0 -10
-5 -10 -11z"/>
<path d="M3337 4364 c-3 -4 -1 -16 5 -28 6 -11 11 -22 10 -23 -3 -5 8 -5 21 0
9 4 9 6 -1 6 -7 1 -10 6 -6 13 4 7 3 8 -4 4 -11 -6 -16 6 -13 27 1 9 -4 9 -12
1z"/>
<path d="M1710 4346 c0 -2 7 -7 16 -10 8 -3 12 -2 9 4 -6 10 -25 14 -25 6z"/>
<path d="M1650 4237 c0 -10 -4 -15 -10 -12 -5 3 -10 2 -10 -3 0 -14 28 -23 35
-12 3 6 1 18 -4 27 -10 17 -10 17 -11 0z"/>
<path d="M3596 4127 c3 -10 9 -15 12 -12 3 3 0 11 -7 18 -10 9 -11 8 -5 -6z"/>
<path d="M1505 4092 c-4 -12 -3 -12 9 -3 10 9 15 9 18 0 3 -8 7 -7 15 2 9 11
6 14 -12 15 -13 1 -26 -5 -30 -14z"/>
<path d="M1456 4077 c3 -10 9 -15 12 -12 3 3 0 11 -7 18 -10 9 -11 8 -5 -6z"/>
<path d="M3750 3955 c0 -8 4 -15 8 -15 5 0 9 7 9 15 0 8 -4 15 -9 15 -4 0 -8
-7 -8 -15z"/>
<path d="M3781 3967 c-2 -16 20 -47 29 -42 5 3 19 1 30 -5 15 -8 25 -8 38 0
11 8 12 10 2 7 -21 -6 -63 11 -55 22 3 5 0 13 -6 17 -8 4 -9 3 -5 -4 4 -7 1
-12 -8 -12 -8 0 -17 6 -19 13 -3 6 -6 8 -6 4z"/>
<path d="M1233 3920 c-1 -11 2 -20 7 -20 4 0 7 7 6 15 -3 23 -12 26 -13 5z"/>
<path d="M1147 3919 c7 -7 15 -10 18 -7 3 3 -2 9 -12 12 -14 6 -15 5 -6 -5z"/>
<path d="M1173 3880 c-3 -11 -10 -20 -15 -20 -5 0 -7 4 -3 9 3 5 0 13 -6 17
-8 5 -9 3 -4 -6 6 -10 4 -12 -8 -7 -24 9 -21 0 3 -13 24 -13 44 -2 46 23 2 23
-7 22 -13 -3z"/>
<path d="M1090 3880 c0 -5 5 -10 11 -10 5 0 7 5 4 10 -3 6 -8 10 -11 10 -2 0
-4 -4 -4 -10z"/>
<path d="M910 3860 c0 -5 5 -10 11 -10 5 0 7 5 4 10 -3 6 -8 10 -11 10 -2 0
-4 -4 -4 -10z"/>
<path d="M993 3858 c1 -7 -4 -12 -11 -10 -8 1 -11 -2 -7 -8 5 -8 11 -8 21 1 7
6 11 15 8 20 -8 13 -14 11 -11 -3z"/>
<path d="M4449 3861 c-5 -29 -3 -34 14 -37 9 -1 15 2 11 7 -3 5 -10 7 -15 4
-5 -4 -9 -2 -9 4 0 5 5 11 12 13 9 3 9 6 0 12 -7 4 -13 2 -13 -3z"/>
<path d="M580 3846 c0 -2 7 -7 16 -10 8 -3 12 -2 9 4 -6 10 -25 14 -25 6z"/>
<path d="M765 3840 c3 -5 8 -10 11 -10 2 0 4 5 4 10 0 6 -5 10 -11 10 -5 0 -7
-4 -4 -10z"/>
<path d="M945 3840 c3 -5 8 -10 11 -10 2 0 4 5 4 10 0 6 -5 10 -11 10 -5 0 -7
-4 -4 -10z"/>
<path d="M4090 3841 c0 -14 32 -23 44 -11 5 5 6 13 2 17 -4 4 -11 1 -16 -7 -7
-10 -10 -11 -10 -2 0 6 -4 12 -10 12 -5 0 -10 -4 -10 -9z"/>
<path d="M4676 3837 c3 -10 9 -15 12 -12 3 3 0 11 -7 18 -10 9 -11 8 -5 -6z"/>
<path d="M4715 3820 c3 -5 8 -10 11 -10 2 0 4 5 4 10 0 6 -5 10 -11 10 -5 0
-7 -4 -4 -10z"/>
<path d="M370 3805 c-7 -9 -8 -15 -2 -15 5 0 12 7 16 15 3 8 4 15 2 15 -2 0
-9 -7 -16 -15z"/>
<path d="M4754 3798 c3 -21 16 -38 29 -38 7 0 4 5 -5 11 -10 5 -15 16 -12 24
4 8 2 15 -4 15 -6 0 -9 -6 -8 -12z"/>
<path d="M335 3780 c-3 -5 -1 -10 4 -10 6 0 11 5 11 10 0 6 -2 10 -4 10 -3 0
-8 -4 -11 -10z"/>
<path d="M4901 3653 c21 -28 23 -29 16 -11 -4 11 0 18 11 21 9 3 4 5 -12 6
-26 1 -27 -1 -15 -16z"/>
<path d="M4953 3655 c0 -8 4 -12 9 -9 5 3 6 10 3 15 -9 13 -12 11 -12 -6z"/>
<path d="M4994 3640 c0 -13 4 -16 10 -10 7 7 7 13 0 20 -6 6 -10 3 -10 -10z"/>
<path d="M147 3614 c6 -16 19 -18 27 -5 3 5 -3 11 -13 14 -14 3 -18 1 -14 -9z"/>
<path d="M106 3587 c3 -10 9 -15 12 -12 3 3 0 11 -7 18 -10 9 -11 8 -5 -6z"/>
<path d="M93 3553 c4 -6 3 -15 -3 -18 -8 -5 -8 -11 0 -20 8 -10 7 -15 -7 -19
-16 -4 -16 -5 1 -3 11 1 18 5 15 8 -2 3 2 13 9 21 10 13 9 18 -5 29 -9 8 -14
9 -10 2z"/>
<path d="M5065 3500 c-3 -6 1 -7 9 -4 18 7 21 14 7 14 -6 0 -13 -4 -16 -10z"/>
<path d="M34 3479 c-4 -8 -3 -9 4 -5 7 4 12 2 12 -4 0 -7 7 -10 15 -7 8 4 17
2 20 -4 4 -5 1 -8 -6 -7 -6 2 -14 -4 -16 -12 -4 -12 -3 -12 5 -2 5 8 13 13 17
13 5 -1 10 6 11 14 1 10 -4 15 -14 13 -9 -1 -22 1 -29 5 -6 4 -15 2 -19 -4z"/>
<path d="M5106 3473 c-6 -14 -5 -15 5 -6 7 7 10 15 7 18 -3 3 -9 -2 -12 -12z"/>
<path d="M36 1059 c2 -4 -4 -13 -13 -19 -13 -8 -14 -10 -3 -9 29 3 41 -1 35
-12 -4 -6 2 -5 14 2 18 12 19 15 6 29 -15 17 -49 24 -39 9z m33 -22 c0 -9 -2
-8 -6 1 -2 6 -10 9 -15 6 -7 -4 -8 -2 -4 5 9 13 26 5 25 -12z"/>
<path d="M5026 1012 c-2 -4 4 -8 14 -8 10 0 16 4 14 8 -3 4 -9 8 -14 8 -5 0
-11 -4 -14 -8z"/>
<path d="M74 998 c3 -7 9 -21 12 -31 7 -20 29 -18 29 4 1 14 -23 38 -38 39 -5
0 -6 -6 -3 -12z"/>
<path d="M24 983 c4 -4 16 -8 28 -10 28 -4 18 6 -12 12 -12 2 -20 1 -16 -2z"/>
<path d="M5076 978 c3 -4 11 -5 19 -1 21 7 19 12 -4 10 -11 0 -18 -5 -15 -9z"/>
<path d="M77 939 c7 -7 15 -10 18 -7 3 3 -2 9 -12 12 -14 6 -15 5 -6 -5z"/>
<path d="M90 900 c0 -5 5 -10 11 -10 5 0 7 5 4 10 -3 6 -8 10 -11 10 -2 0 -4
-4 -4 -10z"/>
<path d="M4995 859 c-4 -6 -5 -12 -2 -15 2 -3 7 2 10 11 7 17 1 20 -8 4z"/>
<path d="M180 799 c0 -5 5 -7 10 -4 6 3 10 8 10 11 0 2 -4 4 -10 4 -5 0 -10
-5 -10 -11z"/>
<path d="M225 800 c-3 -5 1 -10 10 -10 9 0 13 5 10 10 -3 6 -8 10 -10 10 -2 0
-7 -4 -10 -10z"/>
<path d="M221 764 c0 -11 3 -14 6 -6 3 7 2 16 -1 19 -3 4 -6 -2 -5 -13z"/>
<path d="M4896 767 c3 -10 9 -15 12 -12 3 3 0 11 -7 18 -10 9 -11 8 -5 -6z"/>
<path d="M390 710 c0 -11 4 -20 9 -20 6 0 9 9 8 20 -1 11 -5 20 -9 20 -4 0 -8
-9 -8 -20z"/>
<path d="M390 671 c0 -6 4 -13 10 -16 6 -3 7 1 4 9 -7 18 -14 21 -14 7z"/>
<path d="M4775 660 c3 -5 8 -10 11 -10 2 0 4 5 4 10 0 6 -5 10 -11 10 -5 0 -7
-4 -4 -10z"/>
<path d="M1950 641 c0 -7 -4 -9 -10 -6 -6 4 -7 -1 -3 -11 6 -15 7 -15 15 1 6
9 7 19 4 22 -3 4 -6 1 -6 -6z"/>
<path d="M2074 639 c-4 -8 -3 -9 5 -5 6 4 14 0 18 -9 6 -16 7 -16 15 0 6 9 7
19 4 22 -3 4 -6 1 -6 -7 0 -10 -3 -10 -14 -1 -11 9 -16 9 -22 0z"/>
<path d="M2234 639 c-4 -8 -3 -9 5 -5 6 4 14 0 18 -9 6 -16 7 -16 15 0 6 9 7
19 4 22 -3 4 -6 1 -6 -7 0 -10 -3 -10 -14 -1 -11 9 -16 9 -22 0z"/>
<path d="M2394 639 c-4 -8 -3 -9 5 -5 6 4 14 0 18 -9 6 -16 7 -16 15 0 6 9 7
19 4 22 -3 4 -6 1 -6 -7 0 -10 -3 -10 -14 -1 -11 9 -16 9 -22 0z"/>
<path d="M3795 640 c3 -5 11 -10 16 -10 6 0 7 5 4 10 -3 6 -11 10 -16 10 -6 0
-7 -4 -4 -10z"/>
<path d="M3870 641 c0 -7 -4 -9 -10 -6 -6 4 -7 -1 -3 -11 6 -15 7 -15 15 1 6
9 7 19 4 22 -3 4 -6 1 -6 -6z"/>
<path d="M3994 639 c-4 -8 -3 -9 5 -5 6 4 14 0 18 -9 6 -16 7 -16 15 0 6 9 7
19 4 22 -3 4 -6 1 -6 -7 0 -10 -3 -10 -14 -1 -11 9 -16 9 -22 0z"/>
<path d="M4154 639 c-4 -8 -3 -9 5 -5 6 4 14 0 18 -9 6 -16 7 -16 15 0 6 9 7
19 4 22 -3 4 -6 1 -6 -7 0 -10 -3 -10 -14 -1 -11 9 -16 9 -22 0z"/>
<path d="M4314 639 c-4 -8 -3 -9 5 -5 6 4 14 0 18 -9 6 -16 7 -16 15 0 6 9 7
19 4 22 -3 4 -6 1 -6 -7 0 -10 -3 -10 -14 -1 -11 9 -16 9 -22 0z"/>
<path d="M827 626 c-17 -13 -16 -14 6 -12 15 0 23 6 20 14 -6 14 -4 15 -26 -2z"/>
<path d="M947 626 c-17 -13 -16 -14 6 -12 15 0 23 6 20 14 -6 14 -4 15 -26 -2z"/>
<path d="M1067 626 c-17 -13 -16 -14 6 -12 15 0 23 6 20 14 -6 14 -4 15 -26
-2z"/>
<path d="M1187 626 c-17 -13 -16 -14 6 -12 15 0 23 6 20 14 -6 14 -4 15 -26
-2z"/>
<path d="M1307 626 c-17 -13 -16 -14 6 -12 15 0 23 6 20 14 -6 14 -4 15 -26
-2z"/>
<path d="M1427 626 c-17 -13 -16 -14 6 -12 15 0 23 6 20 14 -6 14 -4 15 -26
-2z"/>
<path d="M1547 626 c-17 -13 -16 -14 6 -12 15 0 23 6 20 14 -6 14 -4 15 -26
-2z"/>
<path d="M1667 626 c-17 -13 -16 -14 6 -12 15 0 23 6 20 14 -6 14 -4 15 -26
-2z"/>
<path d="M1787 626 c-17 -13 -16 -14 6 -12 15 0 23 6 20 14 -6 14 -4 15 -26
-2z"/>
<path d="M1900 620 c-12 -7 -10 -9 7 -7 12 0 19 5 17 9 -6 10 -6 10 -24 -2z"/>
<path d="M3820 620 c-12 -7 -10 -9 7 -7 12 0 19 5 17 9 -6 10 -6 10 -24 -2z"/>
</g>
</svg>
